<?xml version="1.0" encoding="utf-8"?>
<!-- Generator: Adobe Illustrator 24.1.3, SVG Export Plug-In . SVG Version: 6.00 Build 0)  -->
<svg version="1.1" id="Layer_1" xmlns="http://www.w3.org/2000/svg" xmlns:xlink="http://www.w3.org/1999/xlink" x="0px" y="0px"
	 viewBox="0 0 1920 1080" style="enable-background:new 0 0 1920 1080;" xml:space="preserve">
<style type="text/css">
	.st0{fill:url(#SVGID_1_);}
	.st1{fill:url(#SVGID_2_);}
	.st2{fill:url(#SVGID_3_);}
	.st3{fill:url(#SVGID_4_);}
	.st4{fill:url(#SVGID_5_);}
	.st5{fill:url(#SVGID_6_);}
	.st6{fill:url(#SVGID_7_);}
	.st7{fill:url(#SVGID_8_);}
	.st8{fill:url(#SVGID_9_);}
	.st9{fill:url(#SVGID_10_);}
	.st10{fill:url(#SVGID_11_);}
	.st11{fill:url(#SVGID_12_);}
	.st12{fill:url(#SVGID_13_);}
	.st13{fill:url(#SVGID_14_);}
	.st14{fill:url(#SVGID_15_);}
	.st15{fill:url(#SVGID_16_);}
	.st16{fill:url(#SVGID_17_);}
	.st17{fill:url(#SVGID_18_);}
	.st18{fill:url(#SVGID_19_);}
	.st19{fill:url(#SVGID_20_);}
	.st20{fill:url(#SVGID_21_);}
</style>
<g>
	<g>
		<g>
			<g>
				<path d="M664.44,864.9c-2.09-2.54-4.43-4.71-7.05-6.5c-2.62-1.81-5.22-3.3-7.8-4.49c-2.57-1.19-5.01-2.09-7.29-2.69
					c-2.3-0.62-4.13-1.04-5.53-1.3v-0.48c4.67-1.57,8.78-3.61,12.35-6.15c3.56-2.53,6.55-5.38,8.96-8.52
					c2.41-3.15,4.23-6.5,5.46-10.07c1.23-3.56,1.85-7.14,1.85-10.74c0-4.91-0.85-9.19-2.53-12.83s-3.96-6.73-6.87-9.27
					c-2.91-2.54-6.24-4.6-10-6.19s-7.73-2.84-11.91-3.68c-4.18-0.86-8.41-1.45-12.71-1.79c-4.29-0.32-8.41-0.48-12.33-0.48
					c-10.55,0-20.05,0.52-28.49,1.59c-8.42,1.06-16.24,2.16-23.44,3.32l0.73,6.74c1.96-0.24,3.77-0.37,5.4-0.37
					c2.86,0,5.19,0.68,7,2.03c1.79,1.34,2.69,4.06,2.69,8.16v121.54c0,2.05,0.99,3.06,2.95,3.06c4.18,0,7.83,0.08,10.98,0.25
					c3.16,0.16,6.18,0.37,9.09,0.61c2.91,0.25,5.86,0.45,8.85,0.62c2.98,0.16,6.41,0.24,10.24,0.24c8.52,0,15.85-0.79,21.98-2.4
					c6.14-1.59,11.29-3.65,15.46-6.19c4.18-2.54,7.51-5.38,10-8.54c2.5-3.15,4.42-6.28,5.77-9.38c1.35-3.12,2.23-6.04,2.64-8.78
					c0.41-2.75,0.62-4.98,0.62-6.69c0-4.43-0.66-8.34-1.98-11.73C668.22,870.4,666.53,867.44,664.44,864.9z M595.75,794.8
					c0-2.46,0.78-3.94,2.34-4.42c1.55-0.49,4.09-0.75,7.61-0.75c5.15,0,9.88,0.54,14.18,1.59c4.3,1.07,7.97,2.77,11.05,5.11
					c3.08,2.33,5.46,5.32,7.18,8.96c1.72,3.64,2.58,8.04,2.58,13.19c0,5.23-0.82,9.68-2.46,13.32c-1.64,3.64-4.12,6.6-7.44,8.9
					c-3.32,2.29-7.51,3.96-12.57,5.04c-5.08,1.06-11.02,1.59-17.81,1.59c-0.73,0-1.5-0.03-2.27-0.07c-0.78-0.04-1.58-0.06-2.4-0.06
					V794.8z M644.49,898.96c-0.97,3.16-2.65,6.08-5.02,8.78c-2.38,2.71-5.57,4.94-9.58,6.69c-4.01,1.76-9,2.65-14.97,2.65
					c-1.65,0-3.39-0.04-5.22-0.13c-1.85-0.08-3.63-0.21-5.35-0.37c-1.71-0.17-3.33-0.35-4.84-0.55c-1.52-0.21-2.77-0.44-3.75-0.68
					v-58.19c0.58-0.08,1.13-0.13,1.67-0.13h5.09c6.46,0,12.37,0.47,17.74,1.41c5.36,0.95,9.95,2.67,13.76,5.15
					c3.8,2.5,6.74,5.9,8.83,10.2c2.09,4.29,3.13,9.75,3.13,16.38C645.97,892.89,645.47,895.81,644.49,898.96z"/>
				<path d="M828.24,919.09c-1.47-0.37-2.78-1.14-3.92-2.33c-1.14-1.19-2.23-2.92-3.26-5.22c-1.02-2.29-2.14-5.36-3.37-9.2
					l-9.09-28.12c-1.14-3.6-2.68-6.63-4.6-9.09c-1.92-2.46-4.01-4.47-6.26-6.07c-2.24-1.61-4.56-2.84-6.93-3.68
					c-2.38-0.86-4.59-1.5-6.63-1.9v-0.75c4.33-1.55,8.38-3.43,12.15-5.64c3.77-2.2,7.07-4.87,9.89-7.97
					c2.82-3.12,5.02-6.7,6.63-10.75c1.59-4.05,2.38-8.73,2.38-14.05c0-4.99-0.83-9.31-2.51-12.95c-1.68-3.64-3.94-6.74-6.76-9.33
					c-2.82-2.58-6.11-4.67-9.88-6.26s-7.73-2.84-11.91-3.74c-4.18-0.9-8.44-1.51-12.77-1.85c-4.33-0.32-8.47-0.48-12.4-0.48
					c-9.16,0-18.15,0.47-26.94,1.41c-8.8,0.93-17.3,2.1-25.48,3.5l0.73,6.74c1.98-0.24,3.77-0.37,5.4-0.37c2.86,0,5.19,0.68,7,2.03
					c1.81,1.34,2.71,4.06,2.71,8.16v123.14c0,2.05,0.97,3.06,2.93,3.06c0.66,0,1.66-0.01,3.02-0.06c1.34-0.04,2.82-0.13,4.42-0.24
					c1.59-0.13,3.23-0.3,4.91-0.49c1.68-0.21,3.2-0.44,4.6-0.68c1.96-0.32,2.95-1.47,2.95-3.44v-127.3c0-2.46,0.82-3.95,2.46-4.49
					c1.64-0.52,4.09-0.79,7.37-0.79c4.99,0,9.65,0.56,14,1.72c4.33,1.14,8.1,2.88,11.29,5.21c3.19,2.34,5.69,5.31,7.49,8.9
					c1.79,3.6,2.69,7.82,2.69,12.64c0,5.81-0.83,10.77-2.51,14.86c-1.68,4.09-4.13,7.46-7.37,10.13c-3.23,2.65-7.27,4.68-12.09,6.08
					c-4.83,1.38-10.4,2.29-16.69,2.7l1.1,7c5.15,0.17,9.55,0.47,13.19,0.92c3.64,0.45,6.76,1.35,9.34,2.71
					c2.57,1.34,4.73,3.29,6.43,5.83c1.72,2.54,3.2,5.93,4.43,10.19l8.71,29.96c1.07,3.77,2.23,6.9,3.5,9.4
					c1.27,2.5,2.72,4.5,4.36,6.01c1.64,1.51,3.49,2.58,5.53,3.19c2.05,0.62,4.37,0.92,7,0.92c0.73,0,1.82-0.06,3.25-0.18
					c1.44-0.11,3.05-0.27,4.85-0.42c1.79-0.17,3.63-0.4,5.46-0.68c1.85-0.28,3.54-0.59,5.09-0.92l-0.37-6.39
					C831.56,919.64,829.72,919.46,828.24,919.09z"/>
				<path d="M898.69,780.8c-0.58,0-1.89,0.08-3.94,0.24c-2.05,0.17-4.6,0.41-7.66,0.75c-3.08,0.32-6.59,0.78-10.57,1.34
					c-3.96,0.58-8.16,1.27-12.57,2.09l0.73,6.76c1.79-0.25,3.6-0.37,5.4-0.37c1.47,0,2.79,0.16,3.98,0.48
					c1.19,0.34,2.22,0.9,3.08,1.72c0.86,0.82,1.51,1.95,1.96,3.37c0.45,1.44,0.68,3.3,0.68,5.59v121.54c0,2.05,0.99,3.06,2.95,3.06
					c0.65,0,1.65-0.01,3.01-0.06c1.35-0.04,2.82-0.13,4.42-0.24c1.59-0.13,3.23-0.3,4.91-0.49c1.68-0.21,3.22-0.44,4.6-0.68
					c1.98-0.32,2.95-1.47,2.95-3.44V784.72C902.61,782.11,901.3,780.8,898.69,780.8z"/>
				<path d="M1080.72,859.49c-0.58,0-1.78,0.01-3.63,0.06c-1.83,0.04-4.16,0.13-6.98,0.25c-2.84,0.11-6.11,0.28-9.82,0.49
					c-3.74,0.2-7.8,0.47-12.22,0.79l0.61,6.87c0.66,0,1.3-0.01,1.9-0.06c0.62-0.04,1.21-0.06,1.78-0.06c1.81,0,3.32,0.14,4.54,0.42
					c1.23,0.28,2.23,0.82,3.01,1.59c0.78,0.78,1.34,1.9,1.66,3.37c0.32,1.48,0.49,3.4,0.49,5.77v38.55
					c-2.13,0.25-4.2,0.41-6.21,0.49c-2,0.08-3.95,0.13-5.83,0.13c-11.22,0-21.05-1.69-29.53-5.09c-8.47-3.4-15.55-8.17-21.24-14.31
					c-5.69-6.14-9.96-13.47-12.83-22.04c-2.86-8.55-4.29-17.98-4.29-28.29c0-8.76,1.14-16.73,3.43-23.94
					c2.3-7.2,5.73-13.38,10.31-18.53c4.59-5.16,10.29-9.16,17.13-11.98c6.83-2.82,14.74-4.23,23.75-4.23
					c4.59,0,9.17,0.47,13.76,1.41c4.59,0.95,8.75,2.5,12.52,4.67c3.77,2.16,6.94,5.01,9.52,8.52c2.57,3.53,4.19,7.86,4.84,13.02
					l6.14-0.62c0-0.32-0.01-1.14-0.06-2.46c-0.04-1.31-0.1-2.88-0.18-4.73c-0.08-1.83-0.18-3.84-0.31-6.01
					c-0.13-2.17-0.23-4.3-0.31-6.39c-0.08-2.07-0.18-4.02-0.3-5.83c-0.13-1.79-0.23-3.27-0.31-4.42c-0.08-0.58-0.31-1.13-0.68-1.67
					c-0.37-0.52-1-0.87-1.91-1.03c-5.88-1.31-11.91-2.38-18.05-3.2c-6.14-0.82-12.68-1.23-19.64-1.23c-12.11,0-23.32,1.59-33.64,4.8
					c-10.31,3.19-19.26,7.92-26.82,14.18c-7.58,6.25-13.5,14.05-17.81,23.38c-4.29,9.33-6.43,20.13-6.43,32.41
					c0,11.95,2.02,22.56,6.07,31.86c4.05,9.28,9.72,17.1,17,23.45c7.29,6.34,16,11.16,26.16,14.48c10.15,3.32,21.31,4.98,33.51,4.98
					c7.45,0,14.82-0.48,22.1-1.41c7.28-0.95,14.41-2.48,21.36-4.61c0.9-0.41,1.35-1.06,1.35-1.96v-57.95
					C1084.66,860.8,1083.35,859.49,1080.72,859.49z"/>
				<path d="M1165.41,780.8c-0.58,0-1.89,0.08-3.94,0.24c-2.05,0.17-4.6,0.41-7.66,0.75c-3.08,0.32-6.59,0.78-10.57,1.34
					c-3.96,0.58-8.16,1.27-12.57,2.09l0.73,6.76c1.79-0.25,3.6-0.37,5.4-0.37c1.47,0,2.79,0.16,3.98,0.48
					c1.19,0.34,2.22,0.9,3.08,1.72c0.86,0.82,1.51,1.95,1.96,3.37c0.45,1.44,0.68,3.3,0.68,5.59v121.54c0,2.05,0.99,3.06,2.95,3.06
					c0.65,0,1.65-0.01,3.01-0.06c1.35-0.04,2.82-0.13,4.42-0.24c1.59-0.13,3.23-0.3,4.91-0.49c1.68-0.21,3.22-0.44,4.6-0.68
					c1.98-0.32,2.95-1.47,2.95-3.44V784.72C1169.34,782.11,1168.02,780.8,1165.41,780.8z"/>
				<path d="M1359.59,825.85c-2.2-7.13-5.29-13.29-9.26-18.54c-3.98-5.23-8.71-9.61-14.18-13.14c-5.49-3.51-11.53-6.34-18.12-8.47
					c-6.59-2.13-13.62-3.64-21.11-4.54c-7.49-0.9-15.17-1.35-23.03-1.35c-9.41,0-18.79,0.48-28.16,1.41
					c-9.38,0.95-18.65,2.2-27.81,3.75l0.73,6.63c1.96-0.25,3.77-0.38,5.4-0.38c2.86,0,5.19,0.68,7,2.03c1.79,1.35,2.7,4.11,2.7,8.28
					v121.18c0,2.05,0.99,3.06,2.95,3.06c4.35,0,8.09,0.13,11.23,0.37c3.15,0.25,6.12,0.52,8.9,0.8c2.78,0.28,5.59,0.55,8.41,0.8
					c2.82,0.24,6.08,0.37,9.76,0.37c12.68,0,24.41-1.72,35.16-5.16c10.77-3.43,20.06-8.47,27.87-15.1
					c7.82-6.63,13.93-14.74,18.3-24.37c4.37-9.62,6.56-20.6,6.56-32.96C1362.91,841.21,1361.81,832.98,1359.59,825.85z
					 M1333.63,880.36c-2.74,7.94-6.73,14.69-11.97,20.26c-5.23,5.56-11.71,9.83-19.4,12.83c-7.69,2.99-16.45,4.49-26.27,4.49
					c-3.43,0-6.74-0.16-9.93-0.44c-3.2-0.28-6.35-0.8-9.45-1.54V796.03c0-2.71,1-4.36,3.01-4.98c2-0.61,4.84-0.92,8.54-0.92h6.25
					c10.07,0,19.03,1.54,26.89,4.6c7.86,3.08,14.48,7.41,19.88,13.02c5.4,5.6,9.51,12.29,12.35,20.06
					c2.82,7.77,4.23,16.37,4.23,25.78C1337.75,863.5,1336.38,872.43,1333.63,880.36z"/>
			</g>
		</g>
		<g>
			<linearGradient id="SVGID_1_" gradientUnits="userSpaceOnUse" x1="944.4519" y1="-16.5935" x2="973.3575" y2="821.6685">
				<stop  offset="0" style="stop-color:#0080C8"/>
				<stop  offset="1" style="stop-color:#833594"/>
			</linearGradient>
			<path class="st0" d="M1234.32,414.42c0,0-12.43-1.68-18.22-3.06c-1.19-0.99-1.55-1.99-1.64-3.05
				c-0.49-6.25-2.51-12.19-3.61-18.31c-0.31-1.72-0.66-3.47-1.17-5.15c-2.1-6.97-4.18-13.95-6.46-20.88
				c-2.23-6.82-5.05-13.42-7.97-19.97c-1.3-2.89-2.55-5.81-4.01-8.62c-1.85-3.54-3.91-6.97-5.79-10.5
				c-0.97-1.85-2.29-3.57-2.53-5.81c1.21-1.93,2.98-3.33,4.59-4.85c2.81-2.67,14.38-13.46,14.38-13.46s-25.12,5.98-27.47,5.55
				c-0.62-0.73-1.33-1.5-1.96-2.33c-3.25-4.33-6.55-8.61-9.69-13.01c-3.96-5.57-8.65-10.53-13.28-15.54
				c-4.37-4.74-9.04-9.24-13.7-13.73c-2.96-2.84-6.08-5.53-9.24-8.17c-3.96-3.32-8.04-6.49-12.04-9.78c-0.69-0.56-1.2-1.06-1.9-1.71
				c0.3-1.06,4.4-11.73,6.2-15.93c2.4-5.63,7.32-17.65,7.38-18.47c-0.73,0.52-1.11,0.76-1.45,1.03c-3.22,2.58-6.43,5.15-9.61,7.75
				c-5.46,4.46-10.91,8.95-16.35,13.43c-0.73,0.61-1.47,1.19-2.61,1.11c-0.23-0.08-0.59-0.13-0.89-0.3
				c-4.28-2.47-8.49-5.04-12.8-7.44c-6.98-3.89-14.11-7.52-21.48-10.62c-3.8-1.59-7.63-3.06-11.44-4.64
				c-6.63-2.74-13.45-4.91-20.33-6.91c-2.81-0.8-6.03-1.92-8.85-2.84c-0.18-0.99-0.08-5.95-0.09-7.71
				c-0.04-4.12,0.23-8.27-0.2-12.35c-0.56-5.64-0.86-22.62-1.19-23.38c-0.59,0.95-4.57,8.61-6.19,11.87
				c-4.01,7.99-8.03,15.97-12.05,23.96c-0.52,1.04-0.95,2.16-2.1,2.79c-1.37,0.49-2.74,0.11-4.13-0.1
				c-13.73-2.08-27.59-3.11-41.48-3.14c-10.36-0.03-20.59,0.27-30.89,1.34c-0.68,0.07-1.12,0.09-2.05,0.2
				c-0.49-0.87-1.3-2.17-1.75-3.1c-1.62-3.4-3.2-6.8-4.8-10.2c-2.1-4.47-4.2-8.95-6.31-13.4c-1.06-2.23-6.79-13.66-7.39-14.32
				c-0.17,1.78-1.2,14.84-1.47,20.12c-0.35,6.8-0.58,13.6-0.86,20.42c-0.06,1.3-0.18,2.6-1.31,3.84c-0.52,0.2-1.27,0.54-2.03,0.78
				c-6.29,1.93-12.78,3.05-19.08,5.01c-10.1,3.16-20.16,6.35-29.84,10.71c-6.97,3.13-14.03,6.08-20.69,9.83
				c-0.69,0.4-1.51,0.58-2.36,0.89c-0.93-0.62-33.55-27.58-33.55-27.58s9.98,25.69,13.71,35.33c0.52,1.34,0.8,2.13,1.3,3.5
				c-2.41,1.71-6.24,4.3-8.81,6.15c-2.48,1.78-5.01,3.51-7.39,5.4c-3.6,2.85-7.13,5.77-10.62,8.72c-2.86,2.43-5.77,4.85-8.47,7.46
				c-5.07,4.91-9.99,9.96-14.97,14.96c-0.66,0.66-1.34,1.33-1.93,2.06c-5.02,6.21-10.5,12.05-15.14,18.57
				c-2.81,3.92-5.56,7.86-8.28,11.84c-1.47,2.12-2.79,4.35-4.22,6.49c0,0-0.01,0.01-0.03,0.04c-0.42,0.65-5.32,8.25-8.8,14.8
				c0.03,0.03,0.06,0.06,0.08,0.08c-1.14,2.37-2.19,4.63-3.27,6.86c-0.21,0.42-0.41,0.85-0.62,1.27c-3.74,7.46-6.89,15.2-9.78,23.03
				c-1.75,4.74-3.23,9.57-4.76,14.38c-2.09,6.63-3.65,13.38-5.22,20.13c-1.06,4.57-1.82,9.21-2.65,13.84
				c-0.38,2.07-0.63,4.18-0.87,6.28c-0.31,2.91-0.45,5.86-0.86,8.76c-0.86,5.94-0.92,11.95-1.16,17.92
				c-0.31,7.41-0.21,14.82,0.48,22.21c0.65,6.66,1.06,13.36,2.05,19.98c1.45,9.88,3.33,19.7,6.19,29.31
				c1.81,6.08,3.56,12.19,5.67,18.16c3.61,10.2,7.87,20.13,12.85,29.77c3.68,7.1,7.55,14.08,11.84,20.84
				c5.47,8.66,11.57,16.86,17.93,24.88c3.74,4.7,7.75,9.16,11.92,13.46c4.42,4.56,8.73,9.21,13.42,13.49
				c7.03,6.41,14.27,12.6,22.04,18.15c3.82,2.72,7.56,5.59,11.47,8.2c7.04,4.7,14.36,8.96,21.87,12.9c3.22,1.69,6.48,3.33,9.68,5.05
				c0.69,0.37,1.24,0.97,1.81,1.43c-0.13,1.82-1.07,3.08-1.78,4.4c-3.98,7.48-8.01,14.91-12.01,22.38c-0.66,1.23-1.35,2.5-1.76,3.82
				c-0.34,1.1-0.49,2.33-0.38,3.46c0.18,2,2.13,3.29,4.09,2.86c0.68-0.16,1.33-0.45,1.98-0.73c1.51-0.66,3.01-1.33,4.5-2.02
				c6.41-2.96,12.77-5.98,18.78-9.72c5.09-3.17,10.09-6.48,14.8-10.2c2.14-1.68,4.28-2.12,6.89-1.24
				c10.38,3.49,21.02,5.98,31.8,7.89c5.66,1.02,11.39,1.66,17.09,2.51c6.28,0.93,12.59,1.62,18.95,1.68c2,0.01,3.99,0.2,6,0.24
				c4.81,0.11,9.64,0.4,14.43,0.24c5.52-0.17,11.03-0.65,16.52-1.13c5.28-0.47,10.54-0.95,15.77-1.72
				c6.26-0.95,12.49-2.17,18.72-3.39c3.8-0.73,7.62-1.5,11.34-2.58c8-2.34,15.94-4.91,23.92-7.37c0.78-0.24,1.59-0.31,2.51-0.48
				c1.14,0.85,2.29,1.66,3.39,2.53c2.12,1.68,4.18,3.44,6.32,5.07c10.98,8.27,23.1,14.48,35.61,19.95c0.42,0.18,0.88,0.37,1.33,0.47
				c2.07,0.47,4.16-0.89,4.39-3.01c0.11-1.02-0.07-2.12-0.37-3.1c-0.4-1.21-0.99-2.38-1.59-3.53c-2.84-5.28-5.66-10.57-8.59-15.8
				c-1.92-3.43-6.35-18.35-6.35-18.35s5.38-3.15,6.69-3.92c8.58-4.92,16.79-10.4,24.73-16.27c8.23-6.07,16.17-12.5,23.56-19.61
				c1.75-1.68,3.37-3.61,5.87-4.81c1.28,0.65,2.65,1.28,3.98,2c1.96,1.06,3.89,2.19,5.84,3.27c0.62,0.34,1.28,0.63,1.96,0.06
				c0.51-0.89-0.08-1.57-0.51-2.23c-1.51-2.38-3.08-4.74-4.54-7.14c-0.41-0.68-0.59-1.5-0.8-2.03c0.48-1.85,1.81-2.75,2.79-3.89
				c2.62-3.01,5.39-5.91,7.87-9.03c4.25-5.32,8.4-10.74,12.47-16.2c6.07-8.11,11.27-16.79,16.11-25.67
				c5.79-10.65,15.82-34.43,16.28-35.22c3.39,0.25,14.67,0.25,14.67,0.25s-10.64-7.07-12.15-8.99c0.72-2.48,1.5-4.95,2.12-7.45
				c1.62-6.49,3.34-12.98,4.73-19.53c1.09-5.16,1.76-10.43,2.58-15.65c1.48-9.54,2.06-19.16,2.23-28.8
				c0.11-6.45,0.31-12.92-0.56-19.37c-0.4-2.89-0.47-5.84-0.64-8.78c-0.04-0.8,0.11-1.61,0.16-2.19
				C1217.62,421.14,1234.32,414.42,1234.32,414.42z M1210.82,418.91c0,0-14.75,5.18-21.37,7.7c-0.45-1.26-2.35-9.22-2.35-9.22
				s-3.12,9.22-3.64,10.91c-0.69,0.41-48.61,17.14-49.16,17.2c-0.51-0.49-1.29-1.26-1.72-1.81c-3.39-4.35-6.7-8.76-10.78-12.54
				c-1.06-0.97-1.65-2.12-1.95-3.61c-1.13-5.6-1.34-7.62-1.83-11.46c-0.59-4.54-3.25-14.74-3.4-15.63
				c0.79-0.18,96.17,14.58,96.17,14.58L1210.82,418.91z M1124.25,593.41c-0.06-1.76,0-3.53-0.06-5.29
				c-0.06-1.76-0.14-3.53-0.32-5.28s-0.44-3.5-0.78-5.22c-0.35-1.74-0.88-3.43-1.31-5.14c-0.44-1.71-0.86-3.41-1.31-5.12
				c-0.45-1.69-0.93-3.37-1.33-4.81c0.72-2.1,2.26-3.1,3.57-4.22c6.7-5.76,12.88-12.02,18.72-18.64
				c6.56-7.42,12.52-15.28,17.79-23.65c6.97-11.09,12.81-22.75,17.16-35.11c3.77-10.78,6.87-21.74,8.47-33.09
				c0.03-0.2,0.2-0.4,0.49-0.95c0.13,5.04,0.17,9.72-0.13,14.39c-0.23,3.53-0.62,7.03-1.11,10.51c-0.97,6.76-1.89,13.52-3.17,20.21
				c-1.02,5.31-2.4,10.55-3.89,15.75c-4.47,15.41-10.47,30.21-18.09,44.33c-7.28,13.49-15.9,26.09-25.76,37.83
				c-2.19,2.61-4.49,5.12-6.79,7.65c-0.42,0.47-1.04,0.78-1.81,1.34C1123.96,596.88,1124.32,595.13,1124.25,593.41z M1019.44,585.11
				c-0.01,0.03-0.01,0.06-0.03,0.08c0,0.65,0.01,1.3,0.01,1.93c0.06,3.41,0.31,6.8,0.73,10.16c0.01,0.18,0.03,0.3,0.03,0.3h0.01
				c0.62,4.78,1.61,9.51,3.05,14.17c1.33,4.26,2.75,8.49,4.12,12.73c0.14,0.45,0.21,0.9,0.34,1.45c-0.92,1.34-1.85,2.68-2.74,4.05
				c-0.82,1.24-1.03,2.82-2.13,3.99c-2.29-3.56-6.01-16.11-7.27-24.31c-2.02-13.22-2.77-22.31-2.23-27.25
				c-0.13-4.26-0.42-8.54-0.11-12.77c-0.03-0.24-0.03-0.47-0.01-0.69c1.41-20.71,5.45-44.02,5.45-44.02
				c1.26-0.79,2.37-0.83,3.71-0.49C1019.13,551.56,1019.02,572.68,1019.44,585.11z M981.59,616.38c-1.45-0.54-2.36-1.57-3.34-2.48
				c-1.47-1.34-2.93-2.7-4.49-3.95c-0.72-0.58-1.59-0.99-2.44-1.4c-1.62-0.76-3.19-0.71-4.61,0.48c-0.55,0.45-1.1,0.89-1.57,1.26
				c-1.66,0.56-3.22,1.07-4.76,1.58c-1.58-0.51-3.13-1.02-4.84-1.57c-0.16-0.11-0.45-0.31-0.73-0.52c-2.81-2.16-4.05-2.34-6.98-0.48
				c-1.76,1.11-3.33,2.58-4.91,3.98c-1.3,1.16-2.51,2.43-3.78,3.65c-0.85-0.95-0.18-1.71-0.08-2.44c0.31-2.44-0.4-4.47-2.48-5.8
				c-2.14-1.35-4.29-0.87-6.29,0.48c-2.86,1.92-5.09,4.52-7.25,7.14c-5.18,6.28-9.48,13.16-13.95,19.92
				c-0.52,0.78-1.06,1.57-1.67,2.27c-1.11,1.33-2.3,2.6-3.58,4.05c-0.37-1.26,0.23-2.07,0.56-2.89c2.89-7.22,5.07-14.65,6.69-22.25
				c1.41-6.55,2.48-13.16,3.27-19.81c0.21-1.75,0.37-3.51,0.51-5.26c0-0.03,0-0.07,0.01-0.11c0-0.08,0.01-0.21,0.03-0.37
				c0.04-0.54,0.11-1.45,0.2-2.64c0.01-0.14,0.03-0.28,0.03-0.42c0.08-0.93,0.17-1.99,0.25-3.16c0.04-0.61,0.1-1.24,0.14-1.89
				c0.03-0.3,0.06-0.59,0.07-0.9c0.54-6.9,1.23-15.79,1.58-20.42c3.36,5.94,7.21,11.74,11.51,17.37
				c8.01,10.46,16.88,19.58,26.36,27.15c1.45,1.16,2.98,1.75,4.52,1.75c1.58,0,3.13-0.61,4.64-1.81
				c5.55-4.42,10.79-9.33,16.06-14.98c8.42-9.07,15.39-18.44,21.08-28.3c-0.16,2.38-0.01,6.74,0.25,11.74
				c0.65,11.6,2.05,26.6,2.17,28.01c0.01,0.07,0.01,0.11,0.01,0.11c0.34,2.34,0.73,4.68,1.16,7.01c1.13,6.25,2.46,12.43,4.3,18.51
				c0.51,1.66,0.78,3.39,1.16,5.09c-0.47-0.51-0.99-0.97-1.37-1.54c-2.58-3.78-5.02-7.68-7.75-11.34c-2.37-3.2-4.98-6.25-7.65-9.21
				c-1.16-1.28-2.62-2.4-4.13-3.25c-3.77-2.1-7.52-0.01-7.89,4.28C981.52,614.03,981.59,615.09,981.59,616.38z M958.84,628.16
				c-1.13-3.19-0.1-5.93,1.16-8.83c1.21,1.47,1.79,2.61,2.14,4.74c0.16,0.89,0.23,1.93-0.08,2.75c-1.64,4.23-1.06,8.58-0.89,12.91
				c0.1,2.69,0.49,5.39,0.44,8.08c-0.06,3.33,0.82,6.24,2.85,8.85c2.74,3.53,5.42,7.1,8.11,10.65c0.99,1.3,1.92,2.62,2.77,3.78
				c-0.38,1.5-1.4,1.57-2.3,1.65c-2.57,0.27-5.15,0.56-7.73,0.63c-5.76,0.14-11.51,0.17-17.27,0.21c-1.13,0.01-2.36,0.21-3.29-0.61
				c-0.31-1.34,0.54-2.07,1.16-2.89c3.51-4.7,6.98-9.45,10.62-14.05c1.47-1.85,2.24-3.82,2.33-6.12c0.08-2.47,0.1-4.94,0.2-7.39
				c0.08-2.23,0.2-4.46,0.4-6.69C959.69,633.24,959.72,630.61,958.84,628.16z M896.53,546.93c-0.4-5.22-0.89-10.44-1.43-15.65
				c-0.16-1.52-0.32-3.06-0.37-4.6c-0.03-0.83,0.04-1.79,0.69-2.33c0.79-0.65,2.07-0.28,2.72,0.52c0.65,0.79,0.83,1.86,1,2.88
				c0.61,3.72,1.2,7.46,1.81,11.2c0.56,3.5,1.52,7.17,1.62,10.71c0.16,1.79,0.3,3.58,0.45,5.38c0.17,2.62,1.55,25.6,0.83,37.17
				c-0.69,8.3-1.89,16.54-3.75,24.69c-0.82,3.54-1.86,7.03-2.85,10.54c-0.18,0.65-0.58,1.24-0.89,1.9
				c-0.44-0.07-0.87-0.03-1.09-0.21c-1.66-1.45-3.3-2.95-5.11-4.57c0.28-1.02,0.56-2,0.86-2.99c1.75-5.73,3.68-11.39,4.84-17.28
				c1.43-7.24,2.06-14.63,2.23-22.07C898.38,570.44,897.45,558.54,896.53,546.93z M891.94,289.14c0,0-1.75,1.45-2.82,1.85
				c-8.06,2.99-15.69,6.83-23.23,10.96c-4.35,2.38-8.38,5.19-12.4,8.04c-3.54,2.51-12.28,8.34-12.28,8.34s4.3-8.14,6.65-11.08
				c2.27-2.84,4.63-5.63,7.1-8.28c2.96-3.17,6.02-6.28,9.19-9.26c3.08-2.89,6.35-5.57,9.54-8.34c1.51-1.3,3.02-2.6,4.95-3.53
				C882.15,279.66,891.94,289.14,891.94,289.14z M882.86,274.89c0.49-0.68,6.63-5.16,9.62-7.17c0.32,0.62-0.13,14.48-0.13,14.48
				S883.42,275.52,882.86,274.89z M857.04,313.59c10.12-6.97,21.04-12.39,32.28-17.2c1.95-0.83,3.95-1.52,5.95-2.22
				c0.51-0.18,1.1-0.16,2.31-0.31c-0.59,1.48-0.9,2.36-1.3,3.17c-1.66,3.37-3.34,6.73-5.05,10.09c-2.92,5.77-5.32,11.75-7.03,18.02
				c-0.28,1.02-0.71,1.99-0.97,3.01c-0.71,2.61-1.4,5.22-2.05,7.83c-0.35,1.37-0.49,2.79-0.96,4.12c-1.75,5.02-2.53,10.24-3.3,15.48
				c-0.4,2.67-1,5.31-1.44,7.96c-0.63,3.82-1.2,7.65-1.41,11.54c-0.2,3.74-0.79,7.45-1.17,11.19c-0.14,1.52-0.24,3.05-0.21,4.57
				c0.06,2.77-1.33,4.6-3.47,6.15c-6.04,4.37-12.77,6.84-20.15,7.75c-2.91,0.35-5.76,1.1-8.62,1.74c-1.5,0.34-2.95,0.83-4.42,1.23
				c-7.79,2.03-15.01,5.4-21.98,9.37c-1.52,0.86-3.02,1.75-4.77,2.77c-0.32-0.75-0.71-1.24-0.71-1.74
				c-0.06-4.35,0.58-14.89,0.63-15.83c0.4-7.17,1.21-14.27,3.08-21.22c0.4-1.48,0.66-2.98,1.03-4.47c1.89-7.77,4.23-15.39,7.31-22.8
				c1.3-3.13,2.72-6.24,3.95-9.41c1.23-3.15,3.33-5.66,5.59-8.04C838.3,327.77,847.32,320.29,857.04,313.59z M1142.47,522.38
				c-5.15-0.44-10.3-0.85-15.45-1.27c-4.32-0.37-8.65-0.75-12.98-1.13c-2.68-0.24-5.38-0.47-8.06-0.76
				c-0.78-0.08-1.54-0.35-2.23-0.51c-0.24-1.03,0.4-1.24,0.92-1.4c1.92-0.58,3.84-1.1,5.77-1.64c6.52-1.78,12.57-4.59,18.1-8.47
				c5.19-3.64,9.17-8.35,12.01-14.04c0.52-1.04,1.04-2.09,1.75-3.49c0.96,0.44,1.65,0.62,2.2,1c5.22,3.57,10.81,6.59,15.7,10.5
				c-1.23,4.4-8.97,16.96-12.92,21.05C1145.73,522.88,1144.09,522.5,1142.47,522.38z M1143.07,528.02
				c-5.79,8.3-21.32,23.99-26.5,26.78c-0.34-0.38-16.31-29.72-16.72-30.56c0.64-0.17,16.18,0.99,23.55,1.67
				C1123.87,525.95,1141.79,527.02,1143.07,528.02z M1152.98,490.38c-1.88-1.2-3.78-2.36-5.64-3.6c-1.14-0.78-2.22-1.68-3.36-2.55
				c0-1.68-0.07-3.19,0-4.7c0.32-6.66-0.49-13.14-2.81-19.39c-0.95-2.53-2.16-4.94-3.25-7.41c-0.37-0.85-0.69-1.69-1.1-2.71
				c0.83-0.52,10.58-4.29,14.79-5.77c5.09-1.79,10.16-3.63,15.25-5.42c4.2-1.5,13.73-4.53,14.53-4.63
				c-0.04,0.79-2.64,15.99-4.19,22.97c-1.1,5.04-2.5,10.03-4.06,14.94c-2.17,6.83-4.73,13.52-7.77,20.01
				c-0.64,1.37-1.09,2.86-2.5,3.98c-0.58-0.2-1.28-0.31-1.85-0.66C1158.33,493.79,1155.66,492.07,1152.98,490.38z M1140.04,482.42
				c-0.85,6.32-3.65,11.91-8.06,16.57c-4.84,5.11-10.65,8.73-17.24,11.3c-7.75,3.03-15.85,4.35-24.03,5.22
				c-3.5,0.37-7.04,0.41-10.55,0.71c-11.26,0.93-22.56,0.51-33.84,0.66c-0.82,0.01-1.65-0.03-2.47-0.07
				c-0.21-0.01-0.41-0.2-1.4-0.68c2.05-0.45,3.39-0.8,4.74-1.04c7.53-1.3,15.1-2.43,22.58-3.91c9.45-1.86,18.96-3.61,28.01-7.08
				c6.17-2.38,11.94-5.49,16.68-10.29c5.79-5.87,8.78-13.01,9.51-21.09c0.37-3.96,0.41-7.99-0.38-11.95
				c-1.58-7.89-4.94-14.9-10.13-21.05c-5.97-7.08-13.16-12.7-21.14-17.34c-8.65-5.04-17.65-9.35-27.15-12.59
				c-4.9-1.65-9.85-3.15-14.8-4.64c-1.33-0.4-2.72-0.55-3.96-0.8c-0.83-2.24-0.83-2.24-0.64-4.59c1.2-0.34,1.95,0.54,2.79,1.09
				c2.67,1.74,5.49,3.09,8.48,4.25c4.46,1.71,9.1,2.33,13.71,3.17c6.38,1.16,12.6,2.81,18.51,5.53c3.19,1.5,6.41,2.93,9.57,4.5
				c4.02,1.99,7.61,4.64,11.23,7.27c3.34,2.43,6.38,5.15,9.35,8.01c6.32,6.1,11.46,13.08,15.51,20.84
				C1139.52,463.2,1141.35,472.6,1140.04,482.42z M1014.28,505.56c-0.61,12.88-3.25,25.37-7.86,37.15
				c-8.88,22.67-23,42.06-43.18,59.23c-0.51,0.45-1.04,0.87-1.58,1.28l-0.37,0.3c-0.61,0.48-1.19,0.72-1.74,0.72
				c-0.55,0-1.11-0.24-1.69-0.69c-7.18-5.71-13.87-12.23-20.45-19.95c-8.41-9.88-15.35-20.45-20.63-31.42
				c-6.65-13.81-10.55-28.21-11.63-42.75c-0.14-1.96-0.21-3.98-0.27-5.93l-0.04-1.4c-0.03-0.69-0.03-0.76,0.79-0.93
				c0.87-0.2,1.76-0.35,2.64-0.52c0.82-0.14,1.64-0.3,2.46-0.47c12.49-2.61,23.42-5.98,33.43-10.31c5.69-2.47,10.48-5.12,14.66-8.11
				c0.31-0.23,0.58-0.34,0.76-0.34c0.06,0,0.23,0,0.55,0.23c6.46,4.6,13.88,8.25,24.03,11.82c9.5,3.34,19.25,5.91,28.98,7.62
				c1.11,0.2,1.16,0.24,1.13,1.43c-0.01,0.72-0.01,1.44-0.01,2.14L1014.28,505.56z M870.65,464.57c-0.47-3.84-1.47-7.61-2.31-11.39
				c-0.3-1.37-0.87-2.68-1.24-4.04c-0.31-1.11-0.48-2.27-0.68-3.29c1.2-1.89,2.48-3.32,4.54-4.46c0.18,0.8,0.38,1.33,0.4,1.86
				c0.28,7.28,0.48,14.56,0.82,21.83c0.2,4.59,0.58,9.14,0.93,13.71c0.18,2.37,0.23,2.37-0.45,4.61c-2,0.06-2,0.06-3.56-0.8
				c-0.31-1.26,0.23-2.48,0.54-3.71C870.85,474.18,871.25,469.37,870.65,464.57z M859.53,473.99c1.38-2.17,2.58-4.44,3.85-6.69
				c1.31-2.27,2.2-4.77,3.3-7.62c2.68,5.79,1.92,16.72-1.45,23c-3.01-0.14-5.9-0.37-8.73-1.07c-0.52-0.14-0.97-0.51-1.68-0.89
				C856.49,478.37,858.11,476.24,859.53,473.99z M852.76,478.4c-0.51,0.62-1.19,1.11-1.9,1.75c-4.84-0.03-9.12-1.99-13.22-4.23
				c-1.99-1.09-4.16-2.24-5.02-4.73c0.35-1.74,1.38-2.55,2.43-3.3c2.1-1.5,4.22-2.99,6.38-4.4c6.7-4.36,13.46-8.64,19.53-13.88
				c0.68-0.58,1.54-0.97,2.46-1.55c1.9,2.29,2.43,4.64,1.79,7.31c-1.52,6.38-4.4,12.13-8.09,17.51
				C855.78,474.8,854.26,476.59,852.76,478.4z M823.64,481.8c3.74,2.5,7.83,4.29,12.05,5.79c7.68,2.7,15.56,4.53,23.51,6.24
				c10.79,2.33,21.69,4.28,32.34,7.21c3.02,0.83,6.03,1.76,8.97,2.81c0.06,1.57,0.11,3.23,0.21,4.9c-3.41-1.35-6.98-2.4-10.7-3.12
				c-7.85-1.51-15.75-2.78-23.58-4.3c-9.13-1.79-18.12-4.15-26.85-7.37c-7.86-2.89-15.38-6.46-22.15-11.47
				c-4.36-3.23-7.72-7.2-9.67-12.3c-1.02-2.71-1.35-5.39-0.62-8.28c1.33-5.16,3.96-9.52,7.53-13.38c3.87-4.15,8.3-7.65,13-10.81
				c12.7-8.54,26.29-15.54,40-22.29c0.92-0.45,1.81-1.14,3.46-0.68c0.37,3.44,0.34,6.79-0.03,10.1c-0.71,0.55-1.21,1.04-1.81,1.41
				c-6.42,3.92-12.94,7.69-19.26,11.75c-8.71,5.6-17.07,11.71-24.48,18.99c-2.07,2.05-3.91,4.37-5.69,6.7
				c-1.38,1.79-2.05,3.96-2.3,6.22C817.01,475.19,819.41,478.96,823.64,481.8z M900.52,500.94c-7.37-2.6-15-4.28-22.63-5.95
				c-10.91-2.4-21.81-4.76-32.69-7.25c-4.94-1.13-9.69-2.93-14.32-4.95c-3.25-1.43-6.24-3.27-8.62-6c-2.02-2.31-2.68-4.83-1.89-7.83
				c0.92-3.46,2.99-6.11,5.4-8.55c7.22-7.29,15.27-13.6,23.85-19.22c5.11-3.36,10.3-6.58,15.46-9.82c1.69-1.06,3.44-2,5.74-2.84
				c0.82,2.46,0.55,4.53,0.31,6.77c-1.93,2.55-4.36,4.78-6.8,6.96c-8.11,7.21-17.09,13.25-26.23,19.05
				c-2.27,1.44-4.42,3.1-6.56,4.74c-0.73,0.56-1.38,1.3-1.93,2.05c-1.47,1.98-1.61,3.92-0.04,5.83c1.34,1.61,2.93,3.08,4.63,4.29
				c3.19,2.27,6.76,3.7,10.57,4.71c5.7,1.51,11.44,2.53,17.3,3.25c7.69,0.95,15.39,2.09,22.97,3.68c6.91,1.45,13.64,3.65,19.94,6.96
				c-0.17,0.03-0.35,0.07-0.52,0.11C902.15,497.46,900.81,498.84,900.52,500.94z M967.53,385.11c0,0,1.24-0.56,1.58-0.77
				c0.97-0.66,1.72-1.25,2.65-1.96c4.04-3.06,8.27-5.8,12.78-8.08c4.18-2.12,8.58-2.27,13.08-1.89c0.47,0.03,0.93,0.16,1.35,0.34
				c1.9,0.79,4.56,5.14,4.33,7.24c-0.69,6.18-1.3,12.37-2.46,18.5c-1.57,8.27-4.44,16.06-8.55,23.41
				c-4.15,7.44-9.12,14.25-15.32,20.11c-3.88,3.65-8.2,6.67-12.71,9.47c-4.6,2.84-9.12,2.84-13.59-0.06
				c-2.86-1.85-5.71-3.74-8.38-5.86c-4.97-3.96-9.34-8.54-13.33-13.52c-3.3-4.15-6.42-8.4-9.04-13c-1.28-2.24-2.65-4.46-3.65-6.83
				c-2.17-5.08-4.36-10.16-5.53-15.59c-0.4-1.83-0.93-3.64-1.44-5.46c-0.37-1.28-0.44-2.54,0.1-3.8c1.76-4.11,3.65-8.16,6.21-11.85
				c0.72-1.04,1.64-1.95,2.38-2.82c3.67-0.96,7-0.35,10.22,0.9c3.29,1.28,6.38,2.99,9.26,5.04c2.88,2.03,9.21,6.42,9.21,6.42
				s-0.21-4.78-0.66-6.41c-1.82-1.58-3.84-2.55-5.87-3.44c-3.02-1.31-6.1-2.48-9.2-3.58c-2.65-0.95-5.4-1.62-8.27-1.51
				c-0.47,0.01-0.92-0.11-1.28-0.16c-0.56-0.75-0.18-1.24,0.24-1.62c1.38-1.27,2.81-2.5,4.22-3.74c4.05-3.63,8.65-6.48,13.15-9.45
				c4.33-2.88,8.54-5.91,11.54-10.22c2.22-3.16,4.11-6.56,6.12-9.88c0.54-0.89,0.86-1.93,1.99-2.53c1.34,0.63,1.58,1.74,2.12,2.62
				c1.82,3.02,3.5,6.12,5.5,9.02c2.84,4.09,6.52,7.39,10.65,10.17c2.33,1.58,4.77,2.99,7.14,4.52c0.79,0.51,1.52,1.1,2.26,1.68
				c0.63,0.52,1.19,1.19,1.9,1.57c3.27,1.78,5.57,4.67,8.27,7.1c0.21,0.2,0.3,0.56,0.59,1.14c-0.79-0.04-1.34-0.01-1.88-0.08
				c-4.56-0.61-8.93,0.24-13.12,1.86c-4.16,1.59-8.34,3.22-12.15,5.62c-0.4,0.25-0.76,0.54-1.07,0.75
				C967.86,381.68,967.53,385.11,967.53,385.11z M1004.11,474.32c0.3,1.37,0.73,2.72,0.32,4.19c-0.37,0.11-0.73,0.35-1,0.27
				c-3.88-1.28-7.85-2.37-11.47-4.36c-0.18-0.82-0.47-1.5-0.45-2.16c0.04-3.53,0.14-7.04,0.24-10.57c0.06-1.64,0.2-3.29,0.23-4.92
				c0.06-4.81,0.07-9.64,0.13-14.45c0.01-1.41,0.11-2.82,0.2-4.23c0.16-2.57,0.32-5.14,0.17-7.79c0.47-0.93,0.86-1.92,1.41-2.81
				c5.15-8.28,8.24-17.38,10.43-26.81c0.58-2.51,0.8-5.09,1.2-7.65c0.27-1.62,0.52-3.25,0.83-4.85c0.08-0.41,0.4-0.78,0.79-1.48
				c0.55,0.83,1.06,1.33,1.26,1.92c1.83,5.21,3.54,10.47,3.99,16.01c0.11,1.37,0.01,2.85-0.38,4.16c-2.1,6.86-3.56,13.88-5.18,20.85
				c-0.92,3.88-1.48,7.85-2.06,11.8c-0.71,4.76-1.35,9.54-1.86,14.32C1002.21,462.01,1002.78,468.19,1004.11,474.32z M989.95,436.5
				c-0.18,5.05-0.42,10.09-0.56,15.14c-0.16,5.28-0.2,10.57-0.31,15.86c-0.01,1.06-0.03,2.12-0.16,3.16
				c-0.04,0.42-0.38,0.8-0.68,1.37c-0.62-0.32-1.21-0.49-1.59-0.87c-1.37-1.37-2.13-3.05-2.29-5.01
				c-0.42-5.39-1.07-10.75-0.25-16.17c0.4-2.67,0.37-5.39,0.75-8.06c0.42-2.99,1.82-4.88,4.87-7.15
				C989.81,435.43,989.97,435.97,989.95,436.5z M929.04,466.64c-0.1,0.01-0.23,0.07-0.27,0.03c-0.08-0.07-0.16-0.2-0.17-0.3
				c-0.44-8.92-0.89-17.82-1.33-26.74c-0.01-0.32,0.11-0.68,0.2-1.02c0.01-0.08,0.16-0.14,0.48-0.41
				C930,444.19,930.59,460.74,929.04,466.64z M913.96,451.63c-0.83-8.31-2.46-16.51-4.02-24.69c-1.14-5.98-2.91-11.87-4.54-17.75
				c-0.59-2.1-0.83-4.09-0.23-6.22c0.47-1.65,0.76-3.34,1.28-5.71c0.51,0.99,0.78,1.33,0.87,1.71c1.17,4.32,2.53,8.56,4.25,12.7
				c2.48,6,5.66,11.61,9.4,16.9c4.73,6.67,3.65,4.85,4.08,11.92c0.55,9.16,0.58,18.33,0.63,27.49c0.01,1.4-0.11,2.79-0.17,3.95
				c-3.34,2.85-7.92,4.8-11.89,5.09c-0.14-0.61-0.47-1.26-0.41-1.88c0.16-1.86,0.42-3.72,0.71-5.59
				C914.83,463.58,914.55,457.63,913.96,451.63z M955.57,330.79c-2.89,5.66-5.88,11.29-10.37,15.86c-1.96,1.99-4.3,3.63-6.59,5.26
				c-3.36,2.38-6.89,4.5-10.19,6.94c-2.84,2.07-5.57,4.32-8.18,6.69c-5.74,5.22-9.67,11.73-12.78,18.77
				c-2.12,4.76-3.56,9.69-4.43,14.8c-0.47,2.78-1.09,5.53-1.57,8.3c-0.24,1.38-0.31,2.81-0.42,4.2c-0.11,1.28-0.1,2.58-0.28,3.87
				c-0.54,3.51-0.45,7.01-0.07,10.54c0.11,1.17,0.25,2.34,0.24,3.51c-0.1,9.31,1.27,18.5,2.37,27.71c0.58,4.9,1.21,9.78,1.83,14.67
				c0.8,6.41,1.65,12.8,2.44,19.22c0.08,0.63-0.04,1.31-0.07,1.99c-2.2-0.31-8.85-3.12-10.95-4.66c-0.32-2.22-0.73-4.63-1.02-7.07
				c-0.59-5.12-1.23-10.26-1.68-15.39c-0.49-5.74-0.96-11.47-1.16-17.23c-0.2-5.63-0.2-11.29-0.01-16.92
				c0.16-4.8,0.48-9.62,1.1-14.39c0.78-6.05,1.86-12.06,2.93-18.07c1.31-7.32,3.75-14.29,6.9-21.01
				c4.32-9.21,9.88-17.61,17.12-24.82c1.09-1.09,2.03-2.29,3.08-3.4c0.87-0.95,1.76-1.88,2.71-2.77c4.53-4.28,9.23-8.37,13.57-12.81
				c4.5-4.63,8.56-9.67,12.29-14.96c0.25-0.35,0.64-0.62,1.09-1.07c2.26,2.55,2.46,5.64,3.3,8.61
				C956.39,328.36,956.15,329.66,955.57,330.79z M905.08,442.26c-1-8.65-1.44-17.31-1.14-26c0.01-0.31,0.17-0.61,0.4-1.41
				c0.45,1.16,0.85,1.86,1,2.6c1.13,5.04,2.24,10.09,3.32,15.14c1.17,5.5,2.13,11.06,2.68,16.66c0.4,3.96,0.82,7.96,0.76,11.94
				c-0.06,4.8-0.58,9.59-1.69,14.29c-0.06,0.21-0.25,0.38-0.79,1.17c-0.54-3.36-1.04-6.11-1.4-8.89
				C907.13,459.26,906.05,450.77,905.08,442.26z M913.55,482.59c3.08-1.17,6.14-2.36,9.23-3.5c2.34-0.87,4.42-2.23,6.39-3.71
				c2.54-1.9,4.08-4.4,4.46-7.68c0.75-6.45,0.93-12.88,0.13-19.34c-0.14-1.11-0.42-2.31,0.32-3.34c1.37-0.13,1.95,0.9,2.68,1.58
				c3.05,2.79,6.29,5.31,9.75,7.55c2.58,1.69,5.38,2.88,8.34,3.73c2.1,0.59,4.15,0.52,6.24-0.18c4.19-1.4,7.87-3.68,11.39-6.28
				c1.69-1.26,3.27-2.67,4.92-4.01c0.52-0.42,1.1-0.8,1.55-1.14c0.92,0.32,0.87,0.95,0.86,1.52c-0.14,4.35-0.41,8.69-0.4,13.04
				c0.01,2.68,0.41,5.39,0.76,8.06c0.11,0.9,0.45,1.88,0.96,2.62c1.68,2.44,3.73,4.59,6.41,5.93c4.19,2.13,8.49,4.04,13.07,5.26
				c1.35,0.35,2.67,0.89,3.98,1.41c0.54,0.21,0.99,0.59,1.58,0.96c0.31,3.39-0.27,6.65-0.85,9.93c-7.93-1.81-15.68-4.13-23.1-6.94
				c-8.04-3.05-14.28-6.25-19.61-10.07c-0.85-0.61-1.85-0.92-2.92-0.92c-1.1,0-2.23,0.32-3.26,0.96c-0.72,0.44-1.44,0.89-2.17,1.34
				c-2.44,1.54-4.98,3.12-7.56,4.4c-9.38,4.68-20.19,8.34-33.91,11.46c-0.79-3.73-1.98-7.76-2.09-10.95
				C911.47,483.12,912.57,482.97,913.55,482.59z M1006.24,471.69c-0.3-1.74-0.66-3.49-0.68-5.23c-0.04-5.16-0.07-10.34,0.17-15.51
				c0.16-3.03,0.85-6.04,1.27-9.06c1.21-8.62,3.12-17.1,5.11-25.57c0.13-0.55,0.35-1.07,0.58-1.74c0.24,0.32,0.45,0.47,0.45,0.62
				c0.01,5.87,0.3,11.77-0.08,17.62c-0.42,6.9-1.4,13.77-2.19,20.66c-0.63,5.47-1.37,10.95-2,16.42c-0.23,1.98-1.45,5.84-1.72,5.86
				C1006.83,474.4,1006.46,473.06,1006.24,471.69z M1010.07,488.72c0.87-7.22,1.76-14.45,2.64-21.69c0.24-1.98,0.47-3.96,0.75-5.94
				c0.9-6.29,1.57-12.59,2.09-18.92c0.61-7.38,1.31-14.74,1.16-22.15c-0.08-4.11-0.54-8.2-0.86-12.29
				c-0.52-6.49-2.36-12.71-4.23-18.89c-1.06-3.46-2.65-6.8-4.44-9.95c-3.03-5.33-6.74-10.2-11.29-14.38
				c-1.55-1.43-3.13-2.85-4.85-4.08c-4.01-2.86-7.87-5.94-12.19-8.37c-4.04-2.29-7.24-5.6-10.07-9.24
				c-3.29-4.19-5.67-8.92-7.69-13.83c-0.27-0.65-0.4-1.34-0.68-2.31c0.95-2.67,1.95-5.52,3.01-8.51c0.42,0.2,0.82,0.25,0.97,0.48
				c6.19,9.4,13.88,17.45,22.25,24.9c7.58,6.76,14.53,14.1,20.15,22.56c3.96,5.97,7.59,12.18,9.75,19.1c0.87,2.81,2,5.55,2.72,8.38
				c1.02,3.98,1.79,8.03,2.58,12.06c1.07,5.42,1.62,10.91,2.13,16.41c1.02,10.94,0.76,21.87,0.35,32.78
				c-0.3,7.97-0.95,15.96-2.26,23.86c-0.54,3.23-0.92,6.5-1.38,9.82c-2.14,1.54-6.98,3.61-10.44,4.52
				c-0.16-0.49-0.45-1.02-0.45-1.52C1009.78,490.6,1009.96,489.67,1010.07,488.72z M1025.43,472.4c0.52-5.38,0.89-10.77,1.24-16.16
				c0.25-3.87,0.41-7.75,0.54-11.61c0.07-2.12,0.03-4.23-0.06-6.35c-0.11-2.82-0.3-5.63-0.48-8.45c-0.3-4.44-0.3-8.95-0.99-13.33
				c-1.62-10.33-3.5-20.64-6.86-30.58c-1.2-3.54-2.82-6.97-4.43-10.36c-3.1-6.5-7.08-12.46-11.7-17.99
				c-1.06-1.26-2.17-2.47-3.26-3.7c-1.17-1.31-2.33-2.65-3.53-3.95c-0.86-0.95-1.75-1.89-2.7-2.78c-2.74-2.58-5.5-5.11-8.25-7.68
				c-2.93-2.72-5.79-5.49-8.51-8.42c-4.09-4.42-7.68-9.2-11.16-14.08c-0.47-0.66-0.78-1.44-1.17-2.2c0.65-3.05,0.51-6.07-0.07-9.12
				c-0.25-1.34-0.04-2.77-0.04-4.08c0.78-0.55,1.24-0.14,1.64,0.27c0.8,0.86,1.58,1.74,2.33,2.64c2.78,3.34,5.46,6.77,8.34,10.03
				c3.34,3.78,6.89,7.39,10.29,11.12c3.49,3.84,7.39,7.24,11.42,10.5c6.36,5.14,11.67,11.23,16.41,17.85
				c5.11,7.14,8.95,14.96,11.94,23.13c2.79,7.62,4.92,15.48,5.83,23.56c0.62,5.6,1.14,11.22,0.95,16.89
				c-0.23,6.34,0.21,12.7-0.72,19.02c-0.08,0.58-0.07,1.17-0.08,1.76c-0.06,5.53-0.75,11.01-1.34,16.49
				c-0.78,7.25-1.54,14.49-2.3,21.74c-0.3,2.68-0.55,5.38-0.87,8.06c-0.08,0.68-0.4,1.33-0.55,1.86c-0.93,0.86-1.83,1.34-3.22,1.11
				c-0.07-0.49-0.28-1.03-0.23-1.55C1024.34,481.5,1024.99,476.97,1025.43,472.4z M1031.7,388.68c-1.57-7.41-4.35-14.36-7.44-21.25
				c-3.34-7.48-8-14.11-13-20.49c-2.6-3.3-5.43-6.42-8.66-9.21c-5.69-4.92-11.61-9.57-16.72-15.13c-1.99-2.16-3.98-4.32-5.87-6.56
				c-4.35-5.09-8.62-10.24-12.94-15.37c-0.68-0.8-1.31-1.68-2.07-2.38c-1.47-1.37-2.12-3.09-2.38-4.99
				c-0.56-4.06-1.1-8.14-1.62-12.22c-0.07-0.56,0-1.14,0-1.59c0.79-0.95,1.59-0.58,2.37-0.37c4.61,1.2,8.78,3.4,12.74,5.94
				c3.15,2.02,6.22,4.2,9.17,6.53c4.53,3.57,8.48,7.77,12.29,12.11c4.59,5.21,8.47,10.96,12.15,16.83
				c2.24,3.57,4.22,7.32,6.14,11.09c2.4,4.71,4.88,9.38,6.6,14.42c2.5,7.32,5.05,14.62,6.7,22.24c1.04,4.83,1.99,9.65,2.74,14.53
				c0.37,2.4,0.52,4.84,0.78,7.34C1031.75,389.88,1031.82,389.21,1031.7,388.68z M1020.04,336.1c-2.43-6.28-6.1-11.88-9.52-17.62
				c-3.92-6.58-8.54-12.66-13.6-18.37c-2.48-2.79-5.33-5.26-8.07-7.83c-2.4-2.26-4.99-4.26-7.69-6.15
				c-4.26-2.98-8.85-5.33-13.55-7.49c-1.06-0.48-2.22-0.78-3.33-1.14c-1.1-0.35-2.2-0.69-3.27-1.03c-1.65-4.09,0.11-7.83,0.3-11.67
				c2.44-2.72,3.61-3.17,6.31-1.98c3.01,1.33,5.87,2.92,8.8,4.42c0.41,0.21,0.79,0.51,1.21,0.71c5.21,2.4,9.47,6.17,13.46,10.09
				c4.25,4.18,8.23,8.71,11.29,13.9c1.31,2.23,2.84,4.33,4.02,6.62c2.2,4.28,4.49,8.52,6.29,12.98c2.14,5.31,3.85,10.81,5.7,16.25
				c0.83,2.44,1.55,4.92,2.29,7.39c0.11,0.41,0.08,0.86,0.13,1.45C1020.39,336.35,1020.09,336.27,1020.04,336.1z M961,311.47
				c0.14,3.2-0.92,6.17-2.07,10.02c-0.63-0.93-0.87-1.19-1-1.5c-1.26-3.06-2.03-6.19-1.76-9.57c0.28-3.49,0.47-6.98,0.65-10.48
				c0.08-2,0.35-3.94,1.16-5.64c0.83-0.38,1.34-0.1,1.58,0.48c0.3,0.75,0.61,1.55,0.65,2.34C960.51,301.91,960.77,306.69,961,311.47
				z M956.39,276.21c-0.44,0.24-0.82,0.54-1.26,0.66c-8,2.34-15.24,6.14-21.73,11.33c-5.98,4.78-11.44,10.06-16.35,15.97
				c-5.43,6.53-10.1,13.56-14.28,20.93c-2.02,3.57-5.98,11.25-6.15,11.39c-0.08-0.18,0.51-3.51,0.96-4.97
				c0.62-2.02,1.44-3.99,1.96-6.02c1.23-4.81,3.17-9.35,5.04-13.91c3.82-9.38,8.52-18.37,15-26.23c5.69-6.9,11.95-13.28,20.06-17.47
				c2.92-1.51,5.84-3.02,8.76-4.52c0.42-0.21,0.87-0.37,1.3-0.55c2.36-0.97,4.37-0.71,6.07,1.89
				C956.33,268.5,957.51,272.25,956.39,276.21z M909.88,316.99c1.76-2.5,3.46-5.04,5.26-7.49c7.24-9.86,15.92-18.19,26.33-24.64
				c4.13-2.55,8.54-4.46,13.15-5.91c0.38-0.13,0.86,0.07,1.47,0.13c0.14,5.69-0.72,11.09-1.71,16.61c-2.48,3.05-4.95,6.18-7.55,9.21
				c-3.5,4.11-7.2,8.04-10.62,12.22c-3.74,4.56-8.04,8.55-12.21,12.7c-0.83,0.82-1.72,1.59-2.65,2.3
				c-9.79,7.39-17.6,16.58-23.93,27.01c-2.74,4.5-5.22,9.21-7.03,14.18c-1.96,5.39-3.37,10.93-5.08,16.47
				c-0.24,0.78-0.44,1.54-0.72,2.53c-0.23-0.47,1.71-15.46,3.2-22.72c1.43-6.93,3.43-13.69,5.83-20.29
				C897.74,337.9,902.84,326.94,909.88,316.99z M886.05,394.88c1.59-8.2,3.81-16.24,7.32-23.86c2.6-5.64,5.4-11.18,9.03-16.3
				c2.74-3.85,5.62-7.55,8.76-11.02c2.58-2.85,5.63-5.31,8.54-7.86c5.11-4.5,10.41-8.76,14.76-14.08c2.67-3.27,5.66-6.29,8.47-9.45
				c1.4-1.58,2.71-3.23,4.09-4.84c1.9-2.23,3.82-4.46,5.76-6.66c0.11-0.13,0.42-0.1,0.83-0.2c-0.17,1.89-0.16,3.77-0.52,5.56
				c-0.56,2.82-0.79,5.59,0.18,8.34c-1.4,3.15-3.39,5.76-5.42,8.32c-1.89,2.4-3.99,4.63-5.93,6.98c-3.15,3.82-6.8,7.11-10.4,10.48
				c-6.26,5.86-12.5,11.75-17.84,18.53c-4.37,5.56-8.34,11.36-11.3,17.81c-2.26,4.9-4.29,9.89-5.71,15.13
				c-2.14,7.83-3.8,15.75-4.88,23.79c-1.35,10.05-1.58,20.13-1.47,30.25c0.04,3.53-0.07,7.05,0.17,10.57
				c0.38,5.63,1,11.23,1.54,16.83c0.41,4.22,0.87,8.42,1.28,12.63c0.06,0.55-0.06,1.11-0.1,1.61c-1.37,0.56-2.17-0.16-3.19-0.8
				c-0.23-1.1-0.54-2.23-0.69-3.37c-0.32-2.44-0.58-4.9-0.85-7.35c-0.89-8.06-1.82-16.1-2.64-24.16c-0.44-4.44-0.69-8.9-1-13.35
				c-0.27-3.63-0.59-7.25-0.71-10.89c-0.13-4.59-0.11-9.17-0.06-13.74C884.16,407.41,884.83,401.1,886.05,394.88z M1013.84,496.74
				c-0.28-0.06-0.58-0.1-0.86-0.17c2.7-1.37,5.5-2.57,8.42-3.6c5.67-2,11.46-3.43,17.43-4.28c4.64-0.66,9.27-1.5,13.91-2.22
				c2.79-0.42,5.57-0.82,8.38-1.13c5.05-0.55,9.92-1.95,14.72-3.51c3.71-1.21,7.05-3.2,9.93-5.88c0.61-0.56,1.2-1.14,1.68-1.81
				c1.68-2.29,1.71-4.18-0.14-6.39c-1.04-1.26-2.29-2.38-3.61-3.3c-4.46-3.08-9.03-5.94-13.47-9.03c-4.15-2.88-8.24-5.84-12.25-8.92
				c-3.84-2.92-7.24-6.34-10.67-9.72c-0.96-0.96-1.48-2.09-1.51-3.46c-0.01-1.5-0.14-3.02,0.35-4.73c0.73,0.18,1.31,0.23,1.78,0.48
				c2.99,1.64,6.01,3.23,8.9,5.04c4.97,3.12,9.92,6.29,14.76,9.62c5.91,4.08,11.43,8.68,16.79,13.42c2.19,1.93,4.04,4.26,5.9,6.53
				c0.88,1.06,1.48,2.38,2.09,3.65c1.69,3.58,1.02,6.89-1.52,9.81c-0.83,0.96-1.82,1.86-2.89,2.54c-1.78,1.14-3.61,2.26-5.55,3.08
				c-5.08,2.17-10.29,3.94-15.66,5.32c-11.63,2.96-23.45,4.99-35.11,7.73c-5.74,1.34-11.49,2.67-17.1,4.52
				c-0.24-0.99-0.8-1.81-1.65-2.33C1015.82,497.33,1014.79,496.91,1013.84,496.74z M1052.38,464.03c0.68,1.48,1.38,2.96,2.13,4.42
				c0.69,1.35,1.43,2.68,2.22,3.98c0.86,1.4,1.83,2.72,2.72,4.09c0.87,1.34,2.38,2.29,2.74,4.5c-3.22,1.61-6.55,1.2-9.78,1.85
				c-0.55-0.82-1.13-1.43-1.41-2.14c-0.49-1.31-0.89-2.67-1.19-4.04c-1.06-5.09-0.82-10.23-0.21-15.35c0.07-0.56,0.32-1.1,0.66-2.2
				C1051.11,461.1,1051.71,462.58,1052.38,464.03z M1052.64,449.54c0.16-0.42,0.45-0.78,0.95-1.59c1.07,0.66,1.92,1.06,2.61,1.64
				c5.95,4.97,12.43,9.2,18.96,13.35c2.37,1.51,4.67,3.15,6.93,4.81c1.1,0.83,2.26,1.71,2.68,3.13c0.01,1.09-0.68,1.78-1.38,2.37
				c-4.64,3.82-9.92,6.17-15.9,6.9c-0.21,0.03-0.45-0.07-0.89-0.16c-1.58-0.76-2.78-2.24-3.94-3.68c-4.8-6.02-8.38-12.7-10.3-20.21
				C1051.8,453.9,1051.8,451.69,1052.64,449.54z M1048.59,454.65c-1.5,5.22-2.55,10.53-2.19,15.97c0.18,2.79,0.8,5.57,1.26,8.35
				c0.2,1.13,0.48,2.26,0.69,3.27c-1.57,1.17-1.57,1.17-3.49,1.06c-0.18-0.58-0.55-1.21-0.55-1.85c0.01-2.58,0.14-5.18,0.27-7.75
				c0.06-1.17,0.3-2.34,0.32-3.51c0.3-8.45,0.55-16.9,0.83-25.36c0.03-1.03,0.14-2.05,0.25-3.58c2.41,1.11,3.84,2.43,5.09,4.37
				C1050.27,448.57,1049.47,451.62,1048.59,454.65z M1018.68,505.54v-2.34c1.04-0.37,2.12-0.69,3.17-1.02
				c7.31-2.2,14.74-3.96,22.24-5.45c6.58-1.28,13.15-2.57,19.66-4.12c7.42-1.78,14.87-3.56,21.88-6.69
				c2.78-1.24,5.49-2.67,8.07-4.29c2.85-1.81,4.88-4.39,5.79-7.73c0.55-1.98,0.47-3.88-0.16-5.88c-1.38-4.43-4.32-7.77-7.44-10.98
				c-1.96-2-4.15-3.81-6.34-5.59c-6.86-5.56-13.97-10.77-21.42-15.48c-5.16-3.26-10.48-6.28-15.72-9.41
				c-0.71-0.42-1.38-0.87-2.24-1.44c-0.75-3.39-0.49-6.86-0.27-10.1c1.19-1,2.09-0.45,2.89-0.08c2.46,1.13,4.91,2.27,7.29,3.54
				c6.41,3.44,12.8,6.94,19.19,10.44c2.37,1.3,4.7,2.67,7.04,4.01c5.01,2.86,9.65,6.28,14.15,9.86c3.58,2.84,6.83,6.11,9.5,9.88
				c1.85,2.62,3.15,5.47,3.99,8.58c1.13,4.11,0.41,7.89-1.5,11.58c-1.86,3.63-4.66,6.49-7.76,9.02c-2.84,2.3-5.93,4.22-9.17,5.9
				c-10.29,5.35-21.18,8.93-32.4,11.71c-7.1,1.75-14.29,2.77-21.46,4.08c-5.19,0.96-10.4,1.95-15.51,3.29
				c-1.23,0.32-2.44,0.71-3.63,1.11C1018.61,507.14,1018.65,506.35,1018.68,505.54z M1113.43,423.54c-1.04-0.59-1.78-0.92-2.41-1.37
				c-4.7-3.37-9.64-6.32-14.87-8.75c-6.19-2.88-12.5-5.4-19.26-6.67c-1.03-0.18-2.02-0.66-3.05-0.87c-1.95-0.42-3.89-0.87-5.87-1.09
				c-8.06-0.89-15.18-3.91-21.46-9c-0.27-0.21-0.51-0.48-0.73-0.75c-0.16-0.18-0.27-0.4-0.47-0.71c-0.08-0.32-0.27-0.79-0.28-1.24
				c-0.14-5.88-1.34-11.65-1.93-17.5c-0.52-5.14-1.02-10.29-1.75-15.39c-0.55-3.82-1.48-7.61-2.22-11.4
				c-1.92-9.95-4.63-19.67-7.73-29.29c-0.47-1.45-0.95-2.93-1.62-4.29c-1.93-3.88-3.15-8.11-5.52-11.8
				c-0.31-0.48-0.28-0.51-0.18-2.09c2.19,0.71,4.13,1.79,6.07,2.86c3.39,1.88,6.74,3.82,10.06,5.83c7.15,4.33,13.7,9.48,20.06,14.9
				c5.11,4.36,9.76,9.16,14.43,13.95c2.05,2.1,3.96,4.35,5.77,6.65c6.9,8.8,13.05,18.12,18.07,28.14c1.83,3.67,3.2,7.58,4.99,11.27
				c2.79,5.74,4.54,11.85,6.25,17.93c1.64,5.87,2.99,11.85,3.63,17.95C1113.5,421.58,1113.43,422.35,1113.43,423.54z
				 M1025.65,313.24c2.24,5.29,4.35,10.65,5.86,16.24c1.75,6.46,3.49,12.92,4.67,19.51c0.99,5.43,2.27,10.82,2.88,16.3
				c0.76,7,1.9,13.95,2.51,20.98c0.45,5.16,0.23,10.34,0.73,15.46c0.9,9.28,0.48,18.57,0.48,27.84c0,5.28-0.51,10.55-0.58,15.85
				c-0.11,8.23-0.55,16.44-1.28,24.64c-0.35,3.96-0.54,7.96-0.82,11.94c-0.04,0.58-0.21,1.14-0.37,1.9
				c-2.19,1.34-4.43,1.54-6.6,1.95c-0.78,0.16-1.57,0.11-2.26,0.14c-0.8-1.17-0.48-2.23-0.37-3.26c0.41-3.74,0.82-7.46,1.23-11.2
				c0.13-1.17,0.28-2.33,0.41-3.5c0.54-5.38,1.1-10.75,1.58-16.13c0.45-5.26,0.83-10.53,1.23-15.8c0.08-1.17,0.16-2.34,0.17-3.51
				c0.04-4.59,0-9.17,0.08-13.76c0.04-2.46,0.37-4.91,0.41-7.38c0.04-3.05-1.07-22.01-1.35-26.7c-0.2-3.16-0.89-6.29-1.52-9.4
				c-0.79-3.91-1.52-7.86-2.69-11.67c-1.62-5.29-2.77-10.68-4.13-16.03c-2.03-7.96-3.94-15.97-6.6-23.76
				c-1.57-4.54-3.17-9.09-5.05-13.52c-3.32-7.8-7.22-15.31-12.19-22.21c-8.11-11.29-18.24-20.16-30.99-25.91
				c-0.83-0.37-1.61-0.86-2.3-1.24c-0.11-1.16,0.62-1.43,1.27-1.62c3.22-0.99,6.53-1.03,9.75-0.18c5.64,1.51,10.71,4.23,14.98,8.24
				c3.01,2.81,5.88,5.74,8.69,8.76c1.43,1.54,2.51,3.39,3.84,5.04c3.68,4.6,6.56,9.72,9.59,14.73
				C1020.26,301.51,1023.13,307.3,1025.65,313.24z M1017.82,290.18c-1.09,0.32-1.41-0.44-1.78-0.99c-1.48-2.26-2.89-4.54-4.36-6.82
				c-3.74-5.74-8.24-10.85-13.25-15.48c-3.81-3.53-7.94-6.59-12.77-8.66c-3.29-1.41-6.69-2.16-10.24-2.38
				c-0.78-0.06-1.55-0.25-2.71-0.45c1.9-5.62,5.04-10.09,7.22-15c0.27-0.61,0.89-1.07,1.55-1.83c4.01-0.72,8.24-0.27,12.45-0.4
				c7.39-0.24,14.73,0.28,21.8,1.09c1.16,1.04,1.02,2.14,1.09,3.19c0.83,11.13,0.63,22.29,0.75,33.45
				c0.04,4.35,0.31,8.68,0.45,13.01C1018.03,289.36,1017.88,289.8,1017.82,290.18z M974.86,241.48c-1.81,3.7-3.67,7.37-5.55,11.03
				c-0.8,1.55-1.69,3.08-2.71,4.9c-2.72,1.03-4.91,3.51-7.96,4.71c-0.78-0.42-1.51-0.76-2.19-1.2c-0.99-0.62-1.86-1.5-2.92-1.95
				c-2.58-1.11-4.01-3.13-5.04-5.62c-0.9-2.16-1.95-4.28-2.88-6.42c-0.23-0.52-0.27-1.11-0.42-1.79c0.71-0.38,1.27-0.86,1.9-1
				c6.89-1.5,13.76-3.1,20.69-4.32c2.33-0.41,4.81-0.78,7.51-0.48C975.14,240.19,975.14,240.91,974.86,241.48z M946.07,259.07
				c0.9,0.17,1.86,0.41,2.55,1.81c-0.69,0.45-1.21,0.93-1.82,1.19c-6.83,2.75-12.95,6.7-18.47,11.5
				c-5.7,4.95-10.6,10.61-14.77,16.95c-4.68,7.11-8.38,14.72-11.58,22.53c-2.09,5.11-3.64,10.43-5.39,15.66
				c-0.75,2.23-1.5,4.46-2.09,6.73c-0.93,3.51-1.71,7.07-2.61,10.6c-1.62,6.25-3.4,12.47-4.9,18.74c-1.13,4.68-1.88,9.44-2.91,14.15
				c-0.96,4.49-1.38,9.04-1.93,13.59c-0.13,1.16-0.11,2.34-0.17,3.51c-0.18,3.64-0.4,7.27-0.55,10.91
				c-0.06,1.17-0.16,2.37,0.03,3.51c0.56,3.39,0.45,6.79,0.48,10.2c0.06,5.76,0.23,11.5,0.49,17.26c0.42,9.16,1.68,18.23,2.37,27.37
				c0.45,6.08,1.28,12.13,1.93,18.2c0.07,0.69,0,1.38,0,2.26c-0.68,0.11-1.26,0.35-1.75,0.25c-2.51-0.55-5.12-0.76-7.48-2.07
				c-0.13-0.48-0.34-0.9-0.38-1.35c-0.25-2.69-0.55-5.38-0.68-8.07c-0.35-6.93-0.65-13.86-0.92-20.77
				c-0.28-7.28-0.49-14.56-0.75-21.84c-0.14-3.87-0.47-7.75-0.42-11.61c0.08-6.82,0.48-13.62,0.55-20.43
				c0.04-4.59,0.31-9.14,1.07-13.67c0.11-0.71,0.18-1.41,0.23-2.1c0.54-10.34,1.99-20.56,4.08-30.7c0.51-2.41,0.83-4.85,1.35-7.27
				c2.06-9.54,4.5-18.99,8.03-28.11c3.32-8.55,7.38-16.76,12.18-24.59c3.88-6.34,8.06-12.43,12.84-18.1
				c3.5-4.15,7.42-7.85,11.84-11.02c3.29-2.36,7-3.87,10.82-5.04C940.19,258.35,943.16,258.53,946.07,259.07z M942.61,255.8
				c-0.21,0.08-0.47,0.06-0.71,0.06c-5.38-0.06-10.05,2.02-14.52,4.74c-6.38,3.88-11.84,8.76-16.35,14.74
				c-2.75,3.64-5.6,7.21-8.52,10.95c-1.65,0.68-3.36,1.78-5.43,1.45c-0.72-3.75-0.13-18.05,0.97-23.17c6.1-4.2,13-7.45,19.99-10.4
				c16.1-6.8,18.48-7.52,22.15-7.65c1.89,2.03,3.58,5.45,4.18,8.51C943.83,255.29,943.22,255.57,942.61,255.8z M811.84,422.49
				c3.02-1.82,5.91-3.88,9.04-5.46c9.61-4.84,19.77-8.01,30.46-9.51c6-0.85,11.6-2.93,16.72-6.21c0.79-0.51,1.58-1.02,2.4-1.48
				c0.17-0.11,0.44-0.06,0.87-0.1c0.56,1.48,0.17,2.86-0.45,4.42c-2.65,0.68-5.07,1.19-7.41,1.9c-10.23,3.15-20.32,6.6-29.9,11.5
				c-5.25,2.68-10.36,5.56-15.18,8.9c-6.22,4.32-11.74,9.4-16.33,15.42c-4.73,6.21-7.85,13.19-8.78,20.91
				c-1.2,9.85,0.37,19.25,6.45,27.44c1.59,2.14,3.49,4.16,5.56,5.86c4.57,3.74,9.76,6.41,15.37,8.42c7,2.51,14.21,4.12,21.48,5.55
				c6.58,1.28,13.18,2.36,19.77,3.56c3.58,0.65,11.58,2.27,12.12,2.44c-0.61,1.1-16.59,0.93-23.76,0.72
				c-9.86-0.31-19.73-0.59-29.52-1.99c-7-1-13.87-2.54-20.37-5.4c-5.97-2.64-11.44-6.07-15.7-11.1c-4.68-5.55-7.31-11.98-7.79-19.26
				c-0.52-8.07,1.43-15.62,4.77-22.87c4.13-8.99,10.07-16.69,17.14-23.49C802.78,428.83,807.09,425.36,811.84,422.49z
				 M823.51,522.49c0.61-0.99,1.35-1.9,2.23-3.13c3.98,0.68,7.73,0.24,11.56,0.86c-0.1,1.47-0.97,2.29-1.75,3.1
				c-4.25,4.59-7.94,9.59-11.67,14.59c-4.6,6.15-8.35,12.83-11.25,19.91c-2.53,6.21-4.28,12.67-4.98,19.39
				c-0.4,3.64-0.72,7.27-0.51,10.91c0.34,5.63,0.76,11.25,2.31,16.72c0.86,3.05,1.51,6.17,2.47,9.19c2.3,7.18,5.36,14.05,8.8,20.74
				c1.45,2.82,3.03,5.57,4.53,8.38c0.24,0.47,0.32,1.02,0.65,2.03c-0.99-0.4-1.54-0.51-1.96-0.82c-4.02-2.88-7.76-6.1-10.99-9.86
				c-3.46-4.01-6.6-8.24-9.04-12.98c-2.74-5.38-4.97-10.92-5.87-16.9c-0.55-3.71-1.06-7.45-1.17-11.2c-0.08-3.39,0.3-6.8,0.65-10.19
				c0.75-7.17,2.7-14.1,5.18-20.81c3.19-8.59,6.93-16.97,11.67-24.85C817.4,532.52,820.45,527.5,823.51,522.49z M821.35,629.25
				c-5.55-11.25-9.47-23.06-10.91-35.53c-0.87-7.48-0.54-14.98,1.1-22.43c2.72-12.4,8.21-23.42,15.93-33.41
				c2.88-3.73,5.74-7.44,8.69-11.09c1.69-2.09,3.56-4.05,5.19-5.91c2.16-0.29,4.08-0.31,6.14-0.08c-0.43,1.34-0.78,2.2-1.28,3.1
				c-2.62,4.85-5.4,9.64-7.86,14.58c-5.18,10.47-8.96,21.46-11.09,32.96c-0.65,3.44-0.76,6.98-1.23,10.48
				c-0.68,5.16-0.25,10.33,0.16,15.46c0.38,4.78,1.21,9.55,2.17,14.25c1.71,8.42,4.25,16.61,6.91,24.76
				c1.34,4.08,1.71,10.29,0.87,14.86c-1.76,0.25-2.62-0.79-3.37-1.79c-1.31-1.79-2.62-3.63-3.7-5.57
				C826.43,639.05,823.79,634.2,821.35,629.25z M835.8,625.61c-0.8,0.14-0.82-0.45-0.95-0.85c-2.85-9.12-4.76-18.4-5.87-27.9
				c-1.13-9.61-0.1-19.01,1.83-28.36c2.02-9.72,5.36-19.01,9.62-27.95c2.93-6.15,6.04-12.22,9.78-17.95
				c0.32-0.48,0.68-0.95,1.07-1.38c0.8-0.91,1.68-0.28,1.5,0.34c-0.1,1.58-0.82,2.95-1.45,4.32c-4.2,8.97-7.32,18.36-9.59,27.98
				c-2.03,8.68-3.77,17.44-4.47,26.37c-0.71,8.79-1.35,17.58-1.43,26.4c-0.03,3.4-0.23,6.8-0.24,10.22
				C835.6,619.3,835.83,625.15,835.8,625.61z M840.51,605.51c-0.04-5.66,0.37-11.27,1-16.89c0.35-3.15,0.59-6.31,0.86-9.47
				c1.07-12.23,3.64-24.14,7.35-35.84c2.16-6.84,4.83-13.49,7.96-19.95c0.41-0.83,0.93-1.59,1.4-2.38
				c0.83-0.14,15.42,0.03,15.99,0.2c0,0,0.32,2.27,0.68,6.24c0.01,0.25,0.04,0.52,0.07,0.8c0.2,2.48,0.41,5.53,0.55,9.04v0.11
				c0.07,1.69,0.13,3.49,0.16,5.38c0,0.01,0,0.01,0,0.03c0.1,6.07-0.03,13.08-0.62,20.56c-0.01,0.06-0.01,0.11-0.01,0.17l-1.07,9.95
				c0,0.06-0.01,0.13-0.01,0.18c-0.63,4.64-1.47,9.37-2.54,14.1c-0.01,0.06-0.03,0.11-0.04,0.17c-2.51,10.67-5.62,21.18-9.3,31.52
				c-3.64,10.19-7.59,20.25-12.25,30.03c-2.02,4.25-8.27,15.94-8.27,15.94s-0.56-4.32-0.56-5.62c0-9.64-0.78-19.26-1.14-28.88
				C840.39,622.44,840.56,613.98,840.51,605.51z M866.66,511.86c-3.8-0.82-7.61-1.51-11.39-2.36c-6.08-1.34-12.19-2.61-18.2-4.19
				c-6.72-1.76-13.32-3.85-19.61-6.84c-4.6-2.19-8.89-4.84-12.63-8.28c-4.94-4.57-7.85-10.26-8.79-16.88
				c-1.54-10.77,1.2-20.53,7.55-29.25c5.32-7.31,11.94-13.26,19.61-18.03c3.39-2.1,6.79-4.22,10.31-6.07
				c3.75-1.95,7.61-3.74,11.51-5.31c5.02-2,10.12-3.8,15.24-5.52c2.78-0.95,5.67-1.57,8.52-2.26c0.63-0.16,1.35-0.03,2.1-0.03
				c0.69,1.45,0.59,2.79,0.03,4.43c-2.44,1.27-5.02,2.62-7.62,3.96c-4.61,2.36-9.26,4.61-13.81,7.04
				c-5.19,2.77-10.34,5.57-15.42,8.54c-6.49,3.81-12.76,8-18.29,13.14c-4.13,3.85-7.76,8.18-9.96,13.53
				c-2.12,5.15-2.17,10.24,0.07,15.39c1.45,3.3,3.5,6.14,6.19,8.47c2.3,2,4.67,3.96,7.21,5.64c6.31,4.16,13.16,7.21,20.28,9.74
				c9,3.2,18.19,5.64,27.54,7.45c7.96,1.54,15.99,2.77,23.92,4.42c3.46,0.72,6.74,1.76,9.91,3.1c0.27,3.02,0.65,6.04,1.16,9.07
				c-5.5-1.93-11.12-3.51-16.85-4.83C879.06,514.55,872.87,513.19,866.66,511.86z M898.79,632.21c3.39-9.55,5.38-19.47,6.96-29.45
				c0.62-3.94,0.76-7.94,1.02-11.92c0.14-2.34,0.07-4.7,0.17-7.04c0.03-0.92,0.06-1.85,0.21-2.74c-0.01-0.52-0.03-1.04-0.04-1.57
				c2.07-14.11-4.3-52.84-4.3-52.84c1.77,5.61,3.06,10.26,4.92,15.38c1.35,3.72,2.89,7.41,4.61,11.06c0,0.01,0,0.01,0,0.01
				c0.4,7.05,0,18.17-0.37,25.86v0.07c-0.13,2.57-0.25,4.76-0.34,6.26c-0.01,0.04-0.04,0.07-0.07,0.1
				c-0.32,4.47-0.83,8.92-1.47,13.36c-0.66,4.53-1.26,9.07-2.14,13.56c-1.47,7.37-3.09,14.7-5.86,21.73
				c-0.56,1.43-0.99,2.91-1.54,4.32c-0.41,1.09-0.93,2.12-1.34,3.05c-0.99,0.06-0.96-0.49-1.06-0.93
				C897.52,637.67,897.81,634.96,898.79,632.21z M1009.72,614.26c-0.23-1.13-0.44-2.24-0.65-3.37c-0.97-5.33-1.74-10.71-2.26-16.13
				c-0.06-0.56-0.11-1.11-0.18-1.69c-1.44-16.85-1.65-36.25-1.65-36.25c1.85-3.64,3.51-7.35,5.04-11.15
				c1.34-3.33,2.53-6.72,3.56-10.13c-0.3,1.93-6.49,41.57-2.92,58.95c0.38,4.66,1.07,9.28,1.88,13.91
				c1.06,6.14,2.29,12.25,4.23,18.16c1.55,4.68,3.19,9.34,4.83,14c0.56,1.57,1,3.13,0.66,4.81c-0.1,0.44-0.31,0.85-0.71,1.89
				c-0.83-0.92-1.43-1.34-1.71-1.9c-0.79-1.58-1.51-3.19-2.17-4.83C1014.17,632.04,1011.54,623.28,1009.72,614.26z M1017.16,520.09
				c0.51-3.03,0.9-6.1,1.16-9.17c2.62-0.99,5.33-1.79,8.17-2.38c7.48-1.55,15.03-2.78,22.53-4.18c13.57-2.53,26.85-6.11,39.38-11.99
				c7.04-3.3,13.69-7.31,18.92-13.28c2.05-2.34,3.78-4.88,4.68-7.8c1.65-5.39,1.23-10.71-1.47-15.73
				c-2.74-5.14-6.58-9.41-10.96-13.21c-5.53-4.81-11.74-8.61-17.99-12.36c-9.09-5.45-18.44-10.36-28.04-14.84
				c-2.44-1.14-4.78-2.5-7.44-3.89c-0.16-0.73-0.27-3.25-0.18-4.12c0.72-0.11,5.76,0.35,7.55,0.9c10.23,3.13,20.33,6.63,29.86,11.63
				c7.52,3.94,14.73,8.37,21.09,14c6.87,6.1,12.37,13.22,15.38,22.03c2.33,6.84,2.72,13.81,0.87,20.83
				c-1.74,6.63-5.57,11.88-10.95,16.01c-3.27,2.5-6.82,4.59-10.58,6.29c-8.51,3.87-17.45,6.32-26.54,8.31
				c-12.05,2.64-24.14,5.12-36.19,7.76C1029.91,516.31,1023.48,518,1017.16,520.09z M1041.52,525.95c0.08-1.37,0.14-2.72,0.2-4.08
				c0.01-0.28,0.03-0.42,0.03-0.42c0.63-0.28,1.04-0.61,1.47-0.64c3.63-0.27,7.25-0.34,10.82-0.06c0,0,0,0.01,0.01,0.03
				c0.45,1.33,10.68,21.22,14.17,45.21c0.01,0.11,0.03,0.21,0.04,0.32c0.18,1.43,4.59,25.43,4.74,26.85
				c0.39,3.53,0.71,7.05,0.99,10.58c0.62,7.83,1.38,15.66,2.02,23.51c0.32,4.09,0.48,8.2,0.73,12.29c0.42,6.8,0.9,13.59,1.26,20.37
				c0.23,4.2,0.28,8.41,0.44,13.07c-0.55-0.54-5.07-8.86-6.96-12.77c-1.43-2.95-2.69-6-4.12-8.95c-3.77-7.72-6.93-15.69-9.98-23.69
				c-3.84-10.1-7.42-20.29-10.06-30.79C1040.73,566.98,1041.1,537.04,1041.52,525.95z M1077.72,591.36c0,0,0-0.08-0.03-0.25
				c-0.31-2.41-0.66-4.83-1.07-7.24c-1-5.88-1.81-11.8-2.7-17.86c-0.9-4.52-1.99-9.45-3.33-14.66c-2.41-9.52-5.62-19.95-9.82-30.35
				c1.52-0.71,3.12-0.4,4.94-0.1c1.02,1.47,2.17,2.95,3.12,4.54c5.93,10.05,11.08,20.47,14.59,31.63
				c2.46,7.86,4.52,15.85,5.07,24.09c0.37,5.62,0.3,11.25-0.28,16.9c-0.76,7.52-2.64,14.79-4.35,22.1c-0.55,2.38-1.47,4.64-2.13,7
				c-0.24-0.07-0.47-0.14-0.69-0.2c-0.42-4.67-0.88-9.34-1.27-14.03C1079.17,605.74,1078.62,598.53,1077.72,591.36z M1083.33,631.79
				c2.65-6.67,4.19-13.71,5.7-20.71c1.06-4.94,1.95-9.92,2.06-15c0.08-3.41,0.55-6.82,0.4-10.22c-0.41-9.67-2.02-19.15-4.98-28.39
				c-2.6-8.07-5.84-15.87-9.82-23.37c-1.92-3.63-3.96-7.2-5.94-10.81c-0.37-0.69-0.63-1.44-1.02-2.33c2.06-0.75,3.88-0.56,6.02-0.2
				c1.07,1.11,2.37,2.3,3.47,3.65c3.64,4.46,7.39,8.85,10.78,13.5c7.31,10.06,13.18,20.88,15.78,33.2c0.65,3.1,1.24,6.22,1.23,9.43
				c-0.03,3.05,0.03,6.11,0.03,9.17c0,4.25-0.65,8.42-1.57,12.57c-2.58,11.67-6.98,22.66-12.68,33.16
				c-2.46,4.53-5.16,8.95-7.8,13.39c-0.4,0.66-0.73,1.54-2.24,1.45C1082.08,644,1080.91,637.92,1083.33,631.79z M1106.54,609.77
				c3.47-12.56,4.67-25.91,2.09-38.68c-3.71-18.31-14.86-34.26-27.22-48.28c-0.3-0.35-0.64-0.75-0.59-1.21
				c0.03-0.38,0.3-0.69,0.56-0.95c2.26-2.09,5.9-2.02,8.62-0.58c2.72,1.43,4.68,3.94,6.43,6.46c5.95,8.58,10.61,18.24,14.84,27.75
				l5.21,13.88c4.98,14.94,5.55,31.18-0.06,46.05c-4.81,12.8-13.86,23.97-25.36,31.35C1097.41,634.2,1103.09,622.35,1106.54,609.77z
				 M1186.98,307.78l-6.52,7.1l-3.05-3.99L1186.98,307.78z M1179.56,322.69c0.41,0.54,0.97,1.13,1.34,1.82
				c2.72,5.33,5.4,10.7,8.13,16.03c4.92,9.64,8.76,19.73,12.13,30.01c2.82,8.59,5.36,17.24,7.01,26.16
				c0.71,3.8,2.02,13.14,2.02,13.14s-11.77-1.04-15.35-1.62c-4.4-0.71-8.79-1.47-13.19-2.17c-2.78-0.45-5.56-0.89-8.34-1.28
				c-4.06-0.59-8.14-1.1-12.2-1.72c-4.87-0.76-9.71-1.64-14.58-2.41c-5.11-0.82-10.2-1.61-15.31-2.4
				c-4.53-0.69-9.06-1.35-13.57-2.06c-1.38-0.23-2.75-0.56-4.36-0.89c-1.3-2.84-2.67-7.94-2.67-7.94s7.99-8.69,10.31-10.85
				c5.35-4.94,10.68-9.88,16.03-14.82c0.17-0.16,0.35-0.31,0.52-0.48c5.79-5.49,11.54-11.03,17.37-16.49
				c4.44-4.16,9.02-8.23,13.47-12.39c2.75-2.55,5.4-5.22,8.13-7.8C1177.29,323.72,1177.97,322.64,1179.56,322.69z M1176.61,318.32
				c0,0-1,1.43-1.65,2.05c-3.4,3.25-6.84,6.43-10.26,9.67c-2.98,2.82-5.94,5.69-8.93,8.49c-6.58,6.21-13.18,12.39-19.75,18.58
				c-4.19,3.95-8.37,7.9-12.56,11.84c-3.85,3.63-7.7,7.24-11.56,10.85c-1.02,0.96-3.33,1.97-3.33,1.97s-2.49-5.4-3.97-7.91
				c-1.48-2.53-2.72-5.21-4.16-7.76c-1.45-2.55-2.96-5.08-4.53-7.55c-1.51-2.38-3.1-4.71-4.73-7.01c-1.69-2.4-3.39-4.78-5.21-7.08
				c-1.81-2.3-3.61-4.6-5.47-7.2c0.65-0.49,0.9-0.8,1.2-0.89c30.08-8.32,90.23-24.47,90.23-24.47L1176.61,318.32z M1113.47,247.94
				c0,0,8.64,6.89,12.78,10.51c4.25,3.7,8.42,7.51,12.4,11.49c4.23,4.23,8.21,8.72,12.3,13.08c6.22,6.6,11.5,13.94,16.92,21.19
				c1.11,1.51,2.89,3.9,2.89,3.9s-2.74,0.7-3.62,0.94c-6.35,1.74-12.68,3.46-19.03,5.16c-6.58,1.76-13.16,3.49-19.74,5.25
				c-2.38,0.63-4.74,1.37-7.13,1.99c-6.48,1.71-12.97,3.33-19.43,5.08c-5.88,1.61-11.73,3.36-17.61,5.01
				c-2.36,0.65-4.71,1.48-7.63,1.35c-0.55-0.65-1.55-2.68-1.43-2.99c1.17-2.81,2.38-5.62,3.56-8.42c2.06-4.99,4.09-10,6.18-14.98
				c1.45-3.47,3.01-6.89,4.49-10.34c1.38-3.23,2.72-6.49,4.09-9.74c5.26-12.45,17.48-40.27,17.48-40.27L1113.47,247.94z
				 M1116.25,221.31c-0.08,0.44-6.9,16.35-7.45,17.37c-0.73-0.17-7.77-5.07-7.77-5.07S1115.71,221.52,1116.25,221.31z
				 M1096.41,236.56l10.82,7.22c0,0-1.7,3.5-2.42,5.33c-0.95,2.4-1.92,4.8-2.92,7.18c-1.47,3.46-2.96,6.9-4.43,10.37
				c-2.2,5.19-4.39,10.39-6.59,15.58c-1.69,4.01-3.4,8.01-5.09,12.02c-2.19,5.19-4.35,10.4-6.55,15.59
				c-2.3,5.4-7.52,16.89-7.92,17.4c-1.74-0.99-3.15-2.17-4.54-3.43c-5.86-5.26-11.82-10.38-18.51-14.59
				c-4.57-2.89-9.11-5.81-13.76-8.58c-2.62-1.57-5.4-2.86-8.1-4.28c-0.41-0.23-0.79-0.48-1.4-0.85c0.32-0.55,0.49-1.13,0.89-1.44
				c4.19-3.41,8.44-6.76,12.64-10.16c4.92-3.99,9.83-8.01,14.74-12.02c4.66-3.78,9.28-7.58,13.94-11.36
				c5.38-4.37,10.75-8.75,16.14-13.12c3.82-3.1,7.65-6.24,11.49-9.33C1095.38,237.67,1096.41,236.56,1096.41,236.56z M1020.39,205.4
				l-0.01-2.54l2.07,0.44c0,0,6.15,1.58,9.16,2.6c5.45,1.83,10.82,3.88,16.27,5.74c6.01,2.06,11.74,4.78,17.54,7.32
				c6.04,2.67,11.84,5.77,17.55,9.03c2.55,1.47,5.09,2.93,7.61,4.44c0.68,0.41,1.23,1.02,2.26,1.88
				c-23.15,19.54-46.48,38.04-69.84,57.03c-0.3-0.83-0.55-1.24-0.58-1.65c-0.25-6.82-0.47-13.62-0.73-20.43
				c-0.11-2.7-0.32-5.39-0.47-8.08c-0.07-1.17-0.13-2.34-0.14-3.53c-0.01-4.7-0.01-9.4,0-14.11c0-1.14-0.14-2.37,1.03-3.4
				c1.89-0.18,3.87,0.13,5.79,0.56c5.84,1.35,11.65,2.74,17.64,3.39c3.03,0.34,6.01,1.04,9.03,1.57c1.37,0.24,2.77,0.48,4.09,0.13
				c0.38-0.87-0.21-1.16-0.65-1.51c-4.11-3.37-8.65-6.1-13.28-8.64c-6.39-3.51-12.94-6.72-19.88-9.02
				c-0.78-0.27-1.52-0.61-2.27-0.96c-0.42-0.18-0.8-0.45-1.45-0.83c-0.2-0.73-0.63-1.62-0.65-2.51
				C1020.37,216.68,1020.39,205.4,1020.39,205.4z M1015.2,171.74l0.87,25.52l-12.06-2.7L1015.2,171.74z M1001.2,198.88
				c1,0,10.61,1.55,14.41,2.96c1.57,7.21,1.13,14.29,1.07,21.66c-1.24-0.13-22.17-4.66-25.07-5.63
				C994.47,211.1,997.76,205.06,1001.2,198.88z M996.32,197.89c-0.1,2.65-8.01,17.37-9.68,19.33c-2.33-0.16-31.76-3.31-55.47-1.38
				c-3.53-6.46-6.29-13.15-9.47-19.85C952.88,190.2,990.37,195.78,996.32,197.89z M903.13,167.03c0.3,0.16,12.02,24.57,12.02,24.57
				l-13.19,2.51C901.96,194.11,902.37,167.55,903.13,167.03z M901.13,199.48c0.73-0.47,15.21-2.82,16.03-2.72
				c0.51,0.8,8.82,18.4,9.13,19.56c-0.89,0.3-24.79,4.25-26.03,4.33C899.92,218.1,900.88,201.8,901.13,199.48z M902.03,225.93
				c5.04-1.38,10.16-1.82,15.25-2.61c4.06-0.63,8.14-1.16,12.22-1.72c0.58-0.08,1.16-0.2,1.75-0.21c7.52-0.1,15-1.17,22.53-0.8
				c6.34,0.31,12.68,0.47,19.02,0.86c3.03,0.2,6.05,0.83,9.07,1.26c3.13,0.44,6.26,0.92,9.43,1.28c4.68,0.54,9.21,1.76,13.81,2.75
				c6.67,1.44,13.24,3.27,19.77,5.25c4.15,1.26,8.2,2.85,12.29,4.32c0.17,0.06,0.25,0.34,0.69,0.95c-3.13-0.51-5.77-0.96-8.42-1.37
				c-5.35-0.79-10.65-1.81-16.09-2.02c-2.1-0.08-4.2-0.42-6.31-0.68c-7.27-0.87-14.52-0.62-21.81-0.16
				c-5.52,0.37-11.01,0.93-16.47,1.66c-5.12,0.68-10.26,1.16-15.27,2.55c-4.64,1.3-9.4,2.2-14.01,3.56
				c-4.74,1.4-9.41,3.01-14.04,4.73c-9.5,3.53-18.64,7.8-27.49,12.74c-2.67,1.5-5.25,3.15-7.79,4.83c-4.32,2.85-8.59,5.74-12.8,8.76
				c-9.14,6.55-17.16,14.28-24.86,22.36c-4.36,4.59-8.65,9.28-12.25,14.56c-2.98,4.36-6.17,8.58-9.1,12.98
				c-1.95,2.93-3.63,6.04-5.38,9.1c-4.16,7.25-7.55,14.9-10.7,22.62c-1.99,4.9-3.57,9.98-5.02,15.06
				c-1.62,5.63-3.19,11.3-3.99,17.14c-0.85,6.15-2.05,12.26-2.62,18.47c-0.51,5.29-0.52,10.55-0.62,15.85
				c-0.03,1.4-0.1,2.81-0.14,3.99c-1.3,2.06-2.95,3.43-4.57,4.74c-4.99,4.04-9.02,8.93-12.78,14.04c-4.56,6.19-8,13.01-10.27,20.39
				c-2.36,7.7-2.78,15.51-0.79,23.32c2.36,9.14,7.66,16.28,15.52,21.53c5.22,3.5,10.91,6.01,16.96,7.65
				c3.96,1.07,8.01,1.88,12.01,2.84c0.52,0.13,0.99,0.49,1.59,0.8c-0.25,0.69-0.38,1.27-0.66,1.75c-0.95,1.62-1.95,3.22-2.95,4.81
				c-7.1,11.13-13.18,22.76-17.81,35.18c-2.74,7.32-4.44,14.86-5.66,22.52c-0.45,2.88-0.24,5.86-0.37,8.79
				c-0.31,6.79,0.75,13.36,2.85,19.8c0.31,0.95,0.54,1.74,0.04,3.37c-0.56-0.35-1.26-0.83-1.72-1.26
				c-4.04-3.78-8.25-7.38-12.02-11.41c-6.39-6.89-12.94-13.66-18.34-21.4c-2.75-3.95-5.86-7.68-8.45-11.73
				c-3.61-5.64-7.05-11.39-10.26-17.27c-2.98-5.46-5.69-11.09-8.27-16.75c-4.85-10.61-8.58-21.63-11.5-32.93
				c-2.34-9.11-4.18-18.33-5.36-27.67c-0.52-4.19-0.56-8.44-1.06-12.64c-0.95-7.97-0.72-15.97-0.54-23.96
				c0.1-4.81,0.66-9.61,1.07-14.41c0.3-3.27,0.65-6.55,1.04-9.81c0.28-2.22,0.56-4.43,1.02-6.62c1.14-5.53,2.22-11.08,3.61-16.54
				c1.26-4.88,2.91-9.68,4.43-14.49c0.68-2.13,1.4-4.25,2.23-6.32c1.89-4.68,3.78-9.37,5.81-13.98c3.98-9.06,8.75-17.71,13.87-26.13
				c3.36-5.53,7-10.88,11.08-15.9c4.67-5.76,9.33-11.51,14-17.26c0.59-0.72,1.24-1.4,1.89-2.09c5.55-5.93,11.64-11.29,17.6-16.79
				c2.16-1.99,4.5-3.78,6.83-5.56c4.59-3.5,9.1-7.1,13.86-10.33c6.91-4.67,14-9.09,21.43-12.91c2.71-1.38,5.4-2.84,8.13-4.2
				c7.89-3.98,16.07-7.25,24.33-10.34c4.64-1.74,9.38-3.03,14.11-4.47C890.36,228.56,896.26,227.51,902.03,225.93z M844.59,216.12
				c3.06-1.19,6.01-2.67,9.07-3.84c3.73-1.43,7.58-2.54,11.29-3.99c6.79-2.65,13.87-4.35,20.88-6.28c2.48-0.68,5.04-1.09,7.56-1.62
				c0.93-0.2,1.85-0.4,2.89,0.42c0.11,0.48-0.48,19.8-0.56,20.4c-1.07,1.24-2.26,1.41-3.39,1.69c-3.53,0.92-7.08,1.72-10.57,2.75
				c-3.82,1.13-7.62,2.37-11.36,3.77c-5.5,2.05-10.94,4.25-16.38,6.45c-2.38,0.97-4.68,2.14-7.04,3.22
				c-1.16,0.54-2.33,1.06-3.39,1.52c-2.84-0.89-4.19-3.29-6.22-4.83c-1.96-1.5-3.8-3.15-5.66-4.76c-1.95-1.66-3.85-3.37-5.97-5.23
				C826.36,225.14,838.45,218.52,844.59,216.12z M821.27,227.68c1.02,0.63,12.95,9.64,17.23,15c-0.61,0.55-16.14,10.02-19.16,11.84
				c-0.68,0.41-2.06,0.92-2.06,0.92l-7.69-20.47C809.59,234.96,816.95,230,821.27,227.68z M798.66,208.67l18.65,15.89l-9.88,6.28
				L798.66,208.67z M806.62,635.38c6.55,7.83,15.19,13.61,24.2,18.48c1.45,0.79,5.04,3.01,5.33,3.25
				c0.83,3.03,1.35,13.67,0.85,17.23c-1.37-0.31-16.35-8.08-22.75-11.8c-10.78-6.29-20.93-13.55-30.6-21.42
				c-6.29-5.12-12.28-10.6-18.07-16.28c-7.97-7.83-15.52-16.07-22.34-24.92c-7.17-9.33-13.83-19.01-19.7-29.22
				c-5.33-9.3-9.96-18.94-14.24-28.74c-1.33-3.02-2.4-6.14-3.54-9.21c-4.3-11.6-7.75-23.44-10.23-35.56
				c-1.58-7.73-2.6-15.52-3.6-23.34c-0.89-6.9-0.92-13.83-1.43-20.74c-0.62-8.37,0.4-16.68,0.45-25.02
				c0.01-3.5,0.68-7.01,1.14-10.51c0.99-7.45,1.92-14.91,3.56-22.27c1.02-4.59,1.78-9.27,3.26-13.71c1.62-4.9,2.47-10.06,4.81-14.73
				c0.16-0.31,0.23-0.66,0.32-1c2.72-8.61,6.39-16.82,10.2-24.96c0,0,0.03-0.06,0.08-0.18c0.03-0.07,0.07-0.16,0.13-0.25
				c0.35-0.75,0.71-1.51,1.06-2.26c0.3-0.65,0.66-1.24,1.06-1.9c3.63-7.08,10.34-19.99,11.85-21.15c2.48-3.81,4.97-7.62,7.56-11.34
				c2.55-3.65,5.32-7.17,8.1-10.67c2.64-3.3,5.4-6.5,8.16-9.72c1.52-1.79,3.1-3.53,4.68-5.25c2.71-2.95,5.45-5.86,8.18-8.78
				c0.24-0.25,0.47-0.52,0.73-0.76c3.37-3.1,6.66-6.29,10.13-9.27c6.07-5.22,12.32-10.2,18.82-14.87c2.37-1.71,4.8-3.37,7.25-4.99
				c0.75-0.49,1.65-0.79,2.6-1.24c0.55,0.66,5.32,11.77,7.24,16.82c0.32,0.87,0.65,2.3,0.87,3.11c-0.77,1.33-2.14,2.21-3.44,3.2
				c-4.64,3.6-9.35,7.1-13.91,10.81c-7.29,5.94-14.14,12.4-20.59,19.26c-3.53,3.77-6.86,7.73-10.19,11.68
				c-2.44,2.86-4.84,5.76-7.07,8.79c-8.42,11.49-15.9,23.56-22.15,36.4c-3.71,7.62-7.1,15.38-9.95,23.35
				c-1.78,4.97-3.23,10.06-4.68,15.14c-1.27,4.4-2.48,8.83-3.44,13.31c-1.19,5.52-2.2,11.08-3.09,16.64
				c-0.54,3.36-0.65,6.79-1.02,10.17c-0.99,9.26-0.85,18.54-0.82,27.84c0.01,6.48,0.75,12.9,1.28,19.33
				c0.73,8.95,2.61,17.68,4.6,26.39c1.41,6.17,3.44,12.21,5.25,18.29c1.51,5.08,3.34,10.03,5.39,14.93
				c5.09,12.16,11.05,23.89,18.1,35.05c6.17,9.76,13.08,18.96,20.56,27.74c6.73,7.89,14.14,15.11,21.73,22.15 M841.26,678.74
				c2.81-5.42,5.53-10.89,8.1-16.44c3.56-7.68,6.98-15.42,10.33-23.18c1.82-4.2,3.47-8.48,5.02-12.8
				c1.95-5.42,3.64-10.94,5.59-16.34c2.12-5.88,3.5-11.97,5.04-17.99c0.41-1.62,0.78-3.26,1.1-4.9c0.55-2.74,1.04-5.49,1.61-8.21
				c0.23-1.11,0.4-2.26,0.71-3.34v-0.01c1.28-9.88,1.69-22.14,1.78-32.42v-0.52c0.01-1.43,0.01-2.79,0.01-4.11v-0.14
				c0-0.21,0-0.42,0.01-0.63c0-0.11,0.01-0.21,0.03-0.31c-0.01-0.1-0.04-0.21-0.06-0.31c0.01-0.01,0.01-0.03,0-0.04
				c-0.03-8.72-0.25-14.89-0.25-14.89c1.03-0.86,9.07,0.75,9.81,0.87c0,0,1.95,10.19,2.53,21.72c0,0.06-1.54,17.23-3.39,29.38
				l-1.16,6.17c-0.38,1.55-0.76,3.1-1.14,4.66c-0.01,0-0.01,0-0.01,0c-1.45,5.95-2.91,11.91-4.61,17.79
				c-3.13,10.71-6.48,21.38-11.29,31.49c-3.84,8.07-7.86,16.04-12.74,23.55c-4.49,6.89-8.71,13.95-13.22,20.84
				c-3.99,6.08-8.23,12.02-12.35,18.02c-0.2,0.3-0.59,0.93-0.59,0.93S838.3,684.49,841.26,678.74z M827.01,710.35
				c1.03-1.58,1.69-2.67,2.41-3.73c4.98-7.13,10.02-14.22,14.93-21.4c3.78-5.53,7.55-11.06,11.06-16.76
				c7.04-11.4,14.08-22.83,19.34-35.19c2.03-4.76,3.75-9.64,5.49-14.51c2.33-6.53,4.43-13.14,6.12-19.87
				c1.61-6.39,3.19-12.77,4.77-19.16c0.06-0.23,0.1-0.44,0.14-0.66c0.18-0.82,0.41-1.65,1.19-2.46c0.56,0.03,1.31,0.07,2.13,0.13
				c0.23,0.85,0.56,1.51,0.55,2.17c-0.21,5.52-0.25,11.05-0.78,16.54c-0.82,8.59-3.25,16.83-6.12,24.93
				c-0.31,0.86-0.83,1.64-1.26,2.48c-1.1,0-2.03-0.04-2.95,0c-3.84,0.17-6.07,2.67-5.77,6.46c0.07,0.8,0.28,1.61,0.47,2.41
				c0.23,0.9,0.59,1.79,0.76,2.71c0.51,2.71,0.45,5.32-0.89,7.87c-3.19,6.04-6.32,12.09-10.13,17.76c-1.11,1.65-2,3.44-3.09,5.12
				c-6.62,10.29-13.87,20.12-21.5,29.67c-3.3,4.13-6.82,8.09-10.29,12.06C831.64,709.18,830.51,709.74,827.01,710.35z
				 M853.14,696.32c-2.3,2.12-5.14,3.68-7.77,5.4c-1.27,0.82-2.68,1.44-4.02,2.13c-0.07,0.03,6.43-8.73,9.69-13.12
				c3.29-4.43,6.65-8.8,9.79-13.33c3.09-4.43,6-8.97,8.89-13.53c2.93-4.63,5.76-9.33,8.62-14c0.21,0.07,0.71,8.96,0.75,12.13
				c0.03,2.31-0.61,4.35-1.96,6.25C869.92,678.29,862.23,687.91,853.14,696.32z M878.89,673.85c-1.76,2.29-3.68,4.43-6.07,6.1
				c0.14-0.42,5.95-8.16,6.32-8.41C879.98,672.53,879.36,673.24,878.89,673.85z M884.26,691.29l-12.04-3.3l9.31-8.07L884.26,691.29z
				 M916.34,695.69c-0.55,0.59-1.2,1.1-1.68,1.55c-4.23,0.49-16.92-1.65-22.8-3.84c-0.34-0.56-0.85-1.21-1.14-1.96
				c-2.58-6.45-4.44-13.14-5.88-19.92c-0.37-1.71-0.55-3.49-0.58-5.23c-0.06-5.29-0.07-10.58,0.04-15.87
				c0.06-3.29,0.42-6.56,0.58-9.85c0.16-3.43-0.08-6.82-1.1-10.12c-0.17-0.54-0.13-1.14-0.2-1.92c0.63-0.13,1.23-0.42,1.68-0.27
				c3.98,1.28,6.73,3.78,7.44,8.09c0.21,1.27,0.27,2.57,0.38,3.85c0.27,3.27,0.52,6.56,0.79,9.83c0.11,1.3,0.37,2.57,1.34,3.54
				c1.52,1.03,2.91,0.48,4.29-0.32c3.09-1.79,5.59-4.29,7.89-6.97c3.15-3.65,6.02-7.49,8.68-11.54c3.33-5.11,6.96-10.05,10.61-14.94
				c1.45-1.96,3.29-3.65,5.02-5.42c0.44-0.44,1.13-0.63,1.66-0.93c0.82,1.02,0.3,1.75,0,2.48c-1.88,4.71-4.4,9.09-6.86,13.5
				c-2.75,4.92-5.38,9.92-8.03,14.9c-0.44,0.83-0.83,1.72-1,2.62c-0.05,0.25-0.05,0.51-0.03,0.79c0.09,1.07,1.16,1.89,2.18,1.55
				c0.1-0.03,0.19-0.07,0.27-0.13c1.37-0.9,2.77-1.83,3.88-3.02c3.95-4.19,7.9-8.37,10.54-13.6c3.16-6.25,7.44-11.7,12.64-16.38
				c0.83-0.75,1.52-1.79,3.17-1.72c-0.24,0.92-0.34,1.71-0.66,2.4c-3.13,6.58-6.07,13.26-9.96,19.44c-2.44,3.88-4.88,7.75-7.37,11.6
				c-0.78,1.19-1.47,2.37-1.47,3.84c2.22-1.61,3.61-3.96,5.33-6.01c1.74-2.06,3.22-4.35,4.8-6.55c4.15-5.73,7.18-12.11,10.43-18.37
				c0.69-1.34,1.03-2.91,2.44-3.87c0.3,0.03,0.62,0.07,0.9,0.11c0.11,0.28,0.3,0.52,0.27,0.71c-0.83,3.92-2.16,7.69-3.99,11.26
				c-1.92,3.77-3.84,7.53-5.69,11.34c-1.68,3.5-3.33,7.01-4.83,10.58c-0.78,1.83-1.23,3.8-1.74,5.73c-0.17,0.66-0.11,1.4-0.07,2.09
				c0.01,0.32,0.13,1.32,0.13,1.32s1.77-0.28,2.19-0.68c3.89-3.5,7.27-7.38,8.37-12.73c0.63-3.12,1.17-6.25,1.9-9.33
				c0.41-1.69,1.11-3.33,1.76-4.95c0.14-0.37,0.62-0.59,1.19-1.09c0.21,0.69,0.42,1.09,0.44,1.51c0.06,0.93,0.06,1.88,0.01,2.81
				c-0.23,4.46-0.51,8.92-0.71,13.38c-0.07,1.47-0.51,2.75-1.37,3.92c-1.61,2.19-3.15,4.4-4.77,6.56
				c-2.84,3.75-5.64,7.53-8.59,11.19c-2.43,3.02-4.95,5.95-7.58,8.8C926.51,684.92,921.42,690.3,916.34,695.69z M995.02,696.9
				c-2.31,0.42-4.61,0.87-6.94,1.14c-5.83,0.63-11.67,1.21-17.51,1.75c-9.85,0.9-19.71,0.78-29.57,0.47
				c-5.73-0.18-18.3-1.52-19.09-1.75c0.08-0.71,10.51-12.88,16.14-18.3c1.35-0.06,2.64-0.14,3.92-0.14c3.75,0,7.51,0.01,11.27,0.07
				c8.23,0.11,16.41-0.47,24.58-1.37c0.92-0.1,1.86-0.01,2.85-0.01c2.46,1.27,4.15,3.46,5.83,5.5c3.25,3.96,7.51,7.08,10.16,11.88
				C996.01,696.45,995.54,696.8,995.02,696.9z M1036.84,629.87c-1.81,6.6-1.1,13.28-0.69,19.97c0.49,7.87,0.86,15.77-0.75,23.55
				c-0.97,4.7-2.68,9.24-4.09,13.84c-0.1,0.32-0.35,0.61-0.68,1.14c-0.62,0.32-21.79,6.29-26.85,6.73
				c-2.61-1.61-4.54-4.16-6.69-6.46c-3.53-3.78-6.98-7.63-10.38-11.51c-1.86-2.12-3.63-4.33-5.33-6.56
				c-3.85-5.05-7.66-10.13-11.49-15.2c-0.99-1.31-1.95-2.65-2.98-4.05c-0.3-5.86-0.59-11.71-0.87-17.58
				c-0.03-0.68,0.13-1.35,0.2-1.96c0.93-0.35,1.31,0.23,1.51,0.72c0.65,1.62,1.31,3.27,1.72,4.97c0.73,2.96,1.35,5.97,1.89,8.97
				c0.55,3.09,1.65,5.86,3.84,8.16c1.38,1.45,2.65,3.01,4.04,4.43c0.45,0.47,1.14,0.71,1.96,1.19c0.34-0.79,0.82-1.4,0.8-1.98
				c-0.13-2.96-0.9-5.79-2.22-8.47c-3.4-6.97-6.72-13.98-10.17-20.93c-1.52-3.08-2.72-6.25-3.58-9.55c-0.2-0.73-0.13-1.52-0.17-2.26
				c1.3-0.37,1.75,0.35,2.14,1.09c0.99,1.88,1.96,3.75,2.91,5.64c3.4,6.86,7.01,13.57,11.94,19.5c1.51,1.79,2.79,3.78,4.19,5.66
				c0.76,1.03,1.55,2.05,2.6,2.75c0.76-0.41,0.37-0.85,0.17-1.19c-1.76-2.92-3.47-5.88-5.36-8.72c-5.28-7.96-9.44-16.51-13.43-25.16
				c-0.27-0.59-0.35-1.28-0.51-1.85c0.83-0.56,1.31-0.17,1.74,0.21c4.71,4.13,8.88,8.72,12.04,14.18c1.88,3.26,3.84,6.46,5.91,9.59
				c2.03,3.05,4.63,5.63,7.29,8.11c0.95,0.87,2.03,1.61,3.12,2.3c0.71,0.45,1.54,0.56,2.37-0.2c0.75-1.2,0.17-2.41-0.37-3.56
				c-1.33-2.77-2.64-5.53-4.09-8.21c-2.37-4.33-4.94-8.56-7.27-12.91c-1.51-2.78-2.78-5.7-4.09-8.58c-0.27-0.58-0.24-1.3-0.41-2.4
				c0.9,0.4,1.5,0.51,1.85,0.86c1.9,1.92,3.82,3.82,5.57,5.87c4.6,5.38,8.14,11.5,12.13,17.31c3.8,5.53,7.83,10.89,13.35,14.89
				c0.76,0.55,1.55,1.07,2.38,1.51c0.97,0.51,2.02,0.56,3.33-0.18c1.19-1.48,1.35-3.22,1.5-4.98c0.34-4.11,0.76-8.2,1.13-12.29
				c0.23-2.5,1.58-4.39,3.36-6.01c1.41-1.28,3.06-2.1,5.25-2.13C1036.7,628.81,1036.97,629.39,1036.84,629.87z M1032.24,623.84
				c-0.32,0.08-0.69,0.07-1.28,0.13c-0.4-0.58-1-1.16-1.27-1.86l-0.09-0.25c-4.33-11.73-6.54-24.14-6.54-36.64v-19.47
				c2.45,12.53,4.05,21.8,4.68,25.56c0.21,1.26,0.46,2.51,0.82,3.74c1.67,5.65,4.4,11.26,6.22,16.81c0.92,2.79,1.76,5.6,2.61,8.42
				c0.16,0.54,0.17,1.11,0.28,1.99C1035.61,622.88,1033.93,623.38,1032.24,623.84z M1037.88,686.02l0.69-4.76l3.22,3.09
				L1037.88,686.02z M1040.61,675.34c2.03,1.06,2.85,2.06,4.33,5.29C1041.65,678.02,1041.06,677.3,1040.61,675.34z M1074.82,703.49
				c-2.99-1.86-6.12-3.56-8.9-5.7c-2.6-1.99-4.92-4.36-7.17-6.76c-5.67-6.11-11.12-12.43-15.99-19.23c-0.61-0.85-1.13-1.75-1.5-2.33
				c0.14-4.83,0.27-9.23,0.42-14.25c2.33,2.5,3.44,5.08,4.99,7.35c1.58,2.33,3.01,4.77,4.54,7.13c1.54,2.36,3.1,4.71,4.71,7.03
				c1.61,2.31,3.27,4.6,4.95,6.87c1.66,2.27,3.34,4.53,5.08,6.76c1.72,2.23,3.56,4.37,5.25,6.62c1.66,2.22,3.61,4.23,5.47,7.13
				C1075.63,703.76,1075.18,703.72,1074.82,703.49z M1090.3,710.38c-3.13-0.52-4.7-1.28-6.6-3.37c-2.14-2.34-4.29-4.68-6.25-7.15
				c-4.83-6.07-9.64-12.13-14.28-18.33c-7.34-9.79-13.84-20.12-20.01-30.68c-1.65-2.81-2.62-5.7-2.38-9.02
				c0.14-2.1,0.01-4.22,0.07-6.34c0.01-0.93,0.03-1.9,1.09-2.68c0.28,0.3,0.66,0.56,0.83,0.93c4.61,10.58,10.39,20.53,16.52,30.28
				c4.81,7.65,9.69,15.27,14.72,22.79c4.3,6.43,8.86,12.71,13.31,19.05C1088.3,707.29,1089.34,708.67,1090.3,710.38z
				 M1085.14,696.79c-0.76-0.82-1.61-1.57-2.23-2.47c-7.61-11.02-15.08-22.11-22.14-33.5c-5.08-8.18-9.98-16.49-13.9-25.3
				c-2.34-5.25-4.44-10.61-6.39-16.03c-2.14-5.95-4.09-11.99-5.91-18.06c-1.17-3.89-2.14-7.86-3.13-11.8
				c-0.4-1.43-0.76-3.12-1.1-5.02c-0.05-0.4-0.2-0.91-0.23-1.4c-3.25-19.95-3.82-59.5-3.82-59.5c2.57-1.33,7.2-2.1,10.88-1.82
				c-0.92,12.64-0.86,24.04-0.3,33.95c0.76,13.59,2.48,24.38,4.02,31.76c0,0.01,0,0.03,0.01,0.04c1.4,6.77,2.64,10.67,2.82,11.19
				c0,0.04,0.01,0.07,0.01,0.07h0.01c1.85,6.9,4.05,13.7,6.35,20.47c2.81,8.24,5.94,16.34,9.35,24.33
				c4.99,11.65,10.46,23.1,16.28,34.37c2.37,4.6,4.84,9.13,7.2,13.73C1083.77,693.42,1084.42,695.13,1085.14,696.79z M1135.2,627.54
				c-2,1.98-3.96,4.02-6.12,5.83c-6.74,5.66-13.36,11.46-20.54,16.58c-6.98,4.98-14.15,9.67-21.55,14.03
				c-0.89,0.52-1.19,0.69-3.02,1.33c-0.97-2.61-1.17-6.07-1.42-8.67c0.78-0.65,15.03-9.64,20.59-14.91
				c6.55-6.21,11.71-13.43,15.51-21.62c0.48-1.04,0.64-2.3,1.95-2.98c0.35,0.07,15.24,8.31,15.62,8.73
				C1135.88,626.41,1135.65,627.09,1135.2,627.54z M1122.4,611.51c1.68-2.82,3.99-4.71,6.42-6.77c0.61,0.51,10.55,15.51,10.7,15.93
				C1137.83,619.93,1123.56,612.29,1122.4,611.51z M1195.1,539.9c-3.01,7.53-6.55,14.83-10.26,22.04
				c-4.73,9.21-10.29,17.92-16.07,26.5c-4.29,6.34-9.1,12.26-13.87,18.2c-2.58,3.2-5.42,6.19-8.17,9.26
				c-0.52,0.59-1.21,1.04-1.98,1.68c-0.51-0.45-6.5-9.02-9.09-12.95c-0.89-1.35-1.78-2.71-2.58-3.96
				c0.48-1.66,17.4-22.41,23.85-32.52c6.69-10.51,18.37-35.9,18.99-37.19c2.51-0.87,19.32,0.78,21.62,1.75
				C1197.55,533.44,1195.8,538.17,1195.1,539.9z M1178.35,524.7c0.75-3.1,1.72-6.08,2.88-9.19c0.83,0.11,17.55,10.68,17.88,11.16
				C1198.63,526.89,1178.8,525.07,1178.35,524.7z M1212.97,456.4c-0.2,5.76-0.79,11.49-1.27,17.21c-0.21,2.58-0.45,5.16-0.83,7.72
				c-1.41,9.17-3.01,18.31-5.5,27.29c-0.89,3.16-1.71,6.35-2.6,9.52c-0.27,1-0.54,2.06-1.58,2.68c-0.34-0.04-0.75,0.03-1.02-0.14
				c-2.6-1.61-5.33-3.05-7.72-4.94c-2.84-2.24-6.55-3.27-8.76-6.1c-0.49-1.38-0.11-2.51,0.16-3.65c1.09-4.57,2.31-9.13,3.17-13.74
				c1.5-8.08,2.64-16.23,3.47-24.42c0.93-9.06,0.55-18.09,0.56-27.15c0-1.51-0.6-9.92-0.6-9.92l19.79-7l1.77-0.55l0.19,1.83
				c0,0,0.73,8.2,0.8,12.3C1213.14,443.7,1213.2,450.06,1212.97,456.4z"/>
			<linearGradient id="SVGID_2_" gradientUnits="userSpaceOnUse" x1="1055.3452" y1="150.3871" x2="1072.5509" y2="247.0831">
				<stop  offset="0" style="stop-color:#0080C8"/>
				<stop  offset="1" style="stop-color:#833594"/>
			</linearGradient>
			<path class="st1" d="M1057.45,194.26c1.48,3.57,4.46,10.8,4.46,10.8l5.8-11.26l10.55-4.53c0,0-9.85-4.8-11.28-5.51
				c-0.94-2.37-4.89-10.78-4.89-10.78s-4.19,9.18-5.01,10.93c-1.65,1.35-10.84,5.16-10.84,5.16S1055.45,193.4,1057.45,194.26z"/>
			<linearGradient id="SVGID_3_" gradientUnits="userSpaceOnUse" x1="700.8929" y1="176.0444" x2="1217.429" y2="692.5804">
				<stop  offset="0" style="stop-color:#0080C8"/>
				<stop  offset="1" style="stop-color:#833594"/>
			</linearGradient>
			<path class="st2" d="M971.45,432.86c-2.68,3.59-5.83,6.53-9.87,8.22c-1.91,0.8-4.08,0.79-6,0c-4.39-1.81-7.94-5.07-12.31-8.05
				c1.24-0.21,1.69-0.45,2.03-0.32c2.37,0.83,9.32,1.01,10.29,1.12c1.51,0.18,3.03,0.15,4.54-0.05c2.3-0.31,9.57-1.59,11.15-1.95
				C971.37,432.26,971.58,432.68,971.45,432.86z"/>
			<linearGradient id="SVGID_4_" gradientUnits="userSpaceOnUse" x1="741.9987" y1="134.9385" x2="967.6342" y2="360.5739">
				<stop  offset="0" style="stop-color:#0080C8"/>
				<stop  offset="1" style="stop-color:#833594"/>
			</linearGradient>
			<path class="st3" d="M997.01,389.91l-0.03,0.04c0-0.01,0-0.03-0.01-0.04H997.01z"/>
			<linearGradient id="SVGID_5_" gradientUnits="userSpaceOnUse" x1="719.746" y1="188.4254" x2="1204.1089" y2="672.7882">
				<stop  offset="0" style="stop-color:#0080C8"/>
				<stop  offset="1" style="stop-color:#833594"/>
			</linearGradient>
			<path class="st4" d="M953.11,425.29c-2.99-1.14-3.64-1.69-5.23-4.37c0.18-2.36,2.48-6.7,2.75-6.66c0.04,0.55,0.21,1.11,0.1,1.62
				c-0.79,3.17-0.28,6.01,1.99,8.45C952.91,424.54,952.96,424.9,953.11,425.29z"/>
			
				<linearGradient id="SVGID_6_" gradientUnits="userSpaceOnUse" x1="729.2692" y1="188.4254" x2="1213.6321" y2="672.7882" gradientTransform="matrix(-1 0 0 1 1923.5736 0)">
				<stop  offset="0" style="stop-color:#0080C8"/>
				<stop  offset="1" style="stop-color:#833594"/>
			</linearGradient>
			<path class="st5" d="M960.94,425.29c2.99-1.14,3.64-1.69,5.23-4.37c-0.18-2.36-2.48-6.7-2.75-6.66c-0.04,0.55-0.21,1.11-0.1,1.62
				c0.79,3.17,0.28,6.01-1.99,8.45C961.14,424.54,961.09,424.9,960.94,425.29z"/>
			<linearGradient id="SVGID_7_" gradientUnits="userSpaceOnUse" x1="875.5688" y1="341.1608" x2="1045.0537" y2="510.6457">
				<stop  offset="0" style="stop-color:#0080C8"/>
				<stop  offset="1" style="stop-color:#833594"/>
			</linearGradient>
			<path class="st6" d="M960.35,425.91c-0.01,0.01-0.03,0.01-0.03,0.03l-0.03-0.01C960.31,425.91,960.32,425.91,960.35,425.91z"/>
			<linearGradient id="SVGID_8_" gradientUnits="userSpaceOnUse" x1="781.5394" y1="95.3978" x2="1298.0754" y2="611.9338">
				<stop  offset="0" style="stop-color:#0080C8"/>
				<stop  offset="1" style="stop-color:#833594"/>
			</linearGradient>
			<path class="st7" d="M1076.52,381.79c-2.42-1.93-6.09-1.71-8.39,0.49c-0.99,0.94-1.41,2.11-1.52,3.45
				c-0.02,0.24-0.03,0.48-0.04,0.71c-0.08,4.55,4.89,7.79,8.94,5.72c0.98-0.5,1.81-1.29,2.46-2.35
				C1079.42,387.43,1078.72,383.54,1076.52,381.79z"/>
			<linearGradient id="SVGID_9_" gradientUnits="userSpaceOnUse" x1="785.2556" y1="91.6695" x2="1301.8027" y2="608.2167">
				<stop  offset="0" style="stop-color:#0080C8"/>
				<stop  offset="1" style="stop-color:#833594"/>
			</linearGradient>
			<path class="st8" d="M1068.26,373.69c0.45-0.73,0.57-1.62,0.32-2.44c-0.77-2.49-3.7-2.84-5.27-1.28
				c-0.43,0.43-0.66,1.03-0.71,1.64c-0.01,0.08-0.01,0.16-0.02,0.24c-0.12,2.45,2.71,4.21,4.75,2.84
				C1067.69,374.45,1068,374.11,1068.26,373.69z"/>
			<linearGradient id="SVGID_10_" gradientUnits="userSpaceOnUse" x1="654.0051" y1="222.9321" x2="1170.5411" y2="739.4682">
				<stop  offset="0" style="stop-color:#0080C8"/>
				<stop  offset="1" style="stop-color:#833594"/>
			</linearGradient>
			<path class="st9" d="M1005.45,504.19c-12.5-2.86-28.76-7.24-43.52-15.87c-0.75-0.44-1.54-0.66-2.34-0.66
				c-0.86,0-1.71,0.25-2.53,0.73c-6,3.57-12.67,6.59-20.98,9.5c-7,2.46-14.39,4.53-22.62,6.36c-2.27,0.51-3.7,2.19-3.6,4.33
				c0.8,11.1,3.1,21.55,7.04,31.93c4.53,11.95,11.08,23.52,19.44,34.39c5.98,7.75,12.68,14.93,19.92,21.35
				c1.02,0.89,2.1,1.34,3.22,1.34c0.48,0,0.97-0.08,1.44-0.25c1-0.35,1.85-1.04,2.48-1.61c8.71-7.76,16.47-16.47,23.08-25.86
				c13.57-19.32,21.01-39.11,22.73-60.5C1009.45,506.63,1008.1,504.8,1005.45,504.19z M1000.44,532.06
				c-4.57,14.86-11.98,28.63-22.67,42.08c-5.23,6.56-11.09,12.77-17.43,18.43c-0.55,0.49-0.73,0.59-0.73,0.61
				c-0.06-0.01-0.24-0.1-0.76-0.56c-10.17-9.09-18.94-19.34-26.06-30.46c-8.59-13.42-14.08-26.82-16.78-40.98
				c-0.56-2.93-0.93-5.98-1.28-8.92c-0.13-1.1-0.27-2.2-0.41-3.29c-0.01-0.17-0.03-0.28-0.03-0.35c0.1-0.04,0.28-0.1,0.59-0.17
				c9.26-2.03,17.67-4.49,25.71-7.48c7.11-2.64,13.19-5.47,18.57-8.68c0.18-0.11,0.34-0.17,0.44-0.17c0.03,0,0.1,0,0.25,0.1
				c9.72,5.73,21.11,10.22,35.84,14.14c2.13,0.56,4.32,1.09,6.42,1.58l2.23,0.52c0.27,0.06,0.42,0.11,0.51,0.16
				C1004.22,516.75,1002.78,524.42,1000.44,532.06z"/>
			<linearGradient id="SVGID_11_" gradientUnits="userSpaceOnUse" x1="648.9766" y1="227.9606" x2="1165.5126" y2="744.4967">
				<stop  offset="0" style="stop-color:#0080C8"/>
				<stop  offset="1" style="stop-color:#833594"/>
			</linearGradient>
			<path class="st10" d="M981.92,527.41l-6.01-0.01c-1.74,0-3.47,0-5.22,0.03c0.03-2.79,0.03-5.59,0.01-8.38v-2.79
				c0-2.1-0.76-2.88-2.84-2.88h-16.62c-2.03,0-2.82,0.79-2.82,2.81l-0.01,2.77c0,2.82,0,5.64,0.03,8.47
				c-1.79-0.01-3.58-0.01-5.39-0.01h-5.87c-1.98,0.01-2.79,0.8-2.79,2.78c0,5.56,0,11.13,0.01,16.71c0,2.06,0.75,2.78,2.84,2.78
				l5.9,0.01c1.76,0,3.53,0,5.31-0.01c-0.03,2.91-0.03,5.81-0.03,8.73v2.47c0,2.02,0.82,2.84,2.81,2.84h16.72
				c1.96,0,2.77-0.8,2.77-2.78v-11.25l11.3-0.01c1.93,0,2.72-0.79,2.72-2.71c0.01-5.6,0.01-11.2,0-16.8
				C984.73,528.18,983.94,527.41,981.92,527.41z M980.25,545.23l-11.09,0.01c-2.09,0-2.85,0.78-2.85,2.86l-0.01,2.69
				c0,2.84,0,5.67,0.03,8.49c-2.24-0.01-4.49-0.03-6.73-0.03c-2.24,0-4.5,0.01-6.77,0.03c0.03-2.74,0.03-5.47,0.01-8.21v-2.92
				c0-2.16-0.76-2.92-2.88-2.92h-11.08v-13.42h11.16c2,0,2.79-0.79,2.79-2.84v-2.81c0.01-2.81,0.01-5.62-0.01-8.42
				c2.34,0.01,4.67,0.03,7.01,0.03c2.14,0,4.3,0,6.49-0.03c-0.04,2.85-0.03,5.71-0.03,8.56l0.01,2.79c0,1.9,0.82,2.71,2.74,2.71
				h11.2V545.23z"/>
			<linearGradient id="SVGID_12_" gradientUnits="userSpaceOnUse" x1="707.705" y1="169.2322" x2="1224.2411" y2="685.7683">
				<stop  offset="0" style="stop-color:#0080C8"/>
				<stop  offset="1" style="stop-color:#833594"/>
			</linearGradient>
			<path class="st11" d="M940.1,390.91c-1.16-0.1-1.85-0.27-2.54-0.21c-4.04,0.3-7.69-0.76-11.22-2.43
				c-0.06-0.03-0.1-0.06-0.16-0.08c-0.55-0.25-1.09-0.52-1.64-0.82c-0.17-0.08-0.35-0.17-0.54-0.27c-1.2-0.59-2.36-1.16-3.43-1.68
				c-0.04-0.03-0.08-0.04-0.13-0.07c-2.99-1.45-5.22-2.5-5.55-2.51c-0.34-0.16-0.8-0.03-2.07-0.03c0,0,1.82,6.77,9.96,10.19
				c0.71,0.31,1.45,0.58,2.26,0.83c3.54,1.04,8.06,1.5,13.8,0.78c0.56,0.3,1.27,0.73,2.03,1.03c0.34,0.14,0.79,0.03,1.59,0.03
				C941.6,393.89,940.88,392.45,940.1,390.91z"/>
			<linearGradient id="SVGID_13_" gradientUnits="userSpaceOnUse" x1="737.2657" y1="139.6716" x2="1253.8018" y2="656.2076">
				<stop  offset="0" style="stop-color:#0080C8"/>
				<stop  offset="1" style="stop-color:#833594"/>
			</linearGradient>
			<path class="st12" d="M974.4,390.91c1.16-0.1,1.85-0.27,2.54-0.21c4.04,0.3,7.69-0.76,11.22-2.43c0.06-0.03,0.1-0.06,0.16-0.08
				c0.55-0.25,1.09-0.52,1.64-0.82c0.17-0.08,0.35-0.17,0.54-0.27c1.2-0.59,2.36-1.16,3.43-1.68c0.04-0.03,0.08-0.04,0.13-0.07
				c2.99-1.45,5.22-2.5,5.55-2.51c0.34-0.16,0.8-0.03,2.07-0.03c0,0-1.82,6.77-9.96,10.19c-0.71,0.31-1.45,0.58-2.26,0.83
				c-3.54,1.04-8.06,1.5-13.8,0.78c-0.56,0.3-1.27,0.73-2.03,1.03c-0.34,0.14-0.79,0.03-1.59,0.03
				C972.9,393.89,973.62,392.45,974.4,390.91z"/>
			<linearGradient id="SVGID_14_" gradientUnits="userSpaceOnUse" x1="751.0004" y1="198.8259" x2="772.3354" y2="454.1586">
				<stop  offset="0" style="stop-color:#0080C8"/>
				<stop  offset="1" style="stop-color:#833594"/>
			</linearGradient>
			<path class="st13" d="M760.75,241.41c-1.1-2.18-3.82-10.77-5.47-12.74c-0.38,0.63-4.88,11.81-5.77,12.98
				c-4.07,1.99-12.84,5.3-12.84,5.3s9.05,3.48,13.25,5.56c2.22,4.29,5.26,12.74,5.26,12.74s3.58-7.42,4.71-10.29
				c0.39-1,1.43-2.85,1.43-2.85l12-5.62C773.33,246.48,762.84,242.27,760.75,241.41z"/>
			<linearGradient id="SVGID_15_" gradientUnits="userSpaceOnUse" x1="635.1334" y1="241.8039" x2="1151.6694" y2="758.3399">
				<stop  offset="0" style="stop-color:#0080C8"/>
				<stop  offset="1" style="stop-color:#833594"/>
			</linearGradient>
			<path class="st14" d="M728.44,315.14c-1.51,1.16-8.23,14.07-11.85,21.15c-1,1.95-1.76,3.47-2.12,4.16
				c-0.06,0.1-0.1,0.18-0.13,0.25c-0.06,0.13-0.08,0.18-0.08,0.18l-2.53-3.96c0-0.01,0-0.01,0.01-0.03
				c0.55-1.76,1.74-4.25,3.17-6.91c3.49-6.55,8.38-14.15,8.8-14.8c0.01-0.03,0.03-0.04,0.03-0.04H728.44z"/>
			<linearGradient id="SVGID_16_" gradientUnits="userSpaceOnUse" x1="714.3651" y1="201.8871" x2="735.7001" y2="457.2198">
				<stop  offset="0" style="stop-color:#0080C8"/>
				<stop  offset="1" style="stop-color:#833594"/>
			</linearGradient>
			<path class="st15" d="M729.77,312.14c-1.1-2.18-3.82-10.77-5.47-12.74c-0.38,0.63-4.88,11.81-5.77,12.98
				c-4.07,1.99-12.84,5.3-12.84,5.3s9.05,3.48,13.25,5.56c2.22,4.29,5.26,12.74,5.26,12.74s3.58-7.42,4.71-10.29
				c0.39-1,1.43-2.85,1.43-2.85l12-5.62C742.34,317.21,731.86,313.01,729.77,312.14z"/>
		</g>
	</g>
	<linearGradient id="SVGID_17_" gradientUnits="userSpaceOnUse" x1="767.2029" y1="126.913" x2="779.591" y2="706.0571">
		<stop  offset="0" style="stop-color:#0080C8"/>
		<stop  offset="1" style="stop-color:#833594"/>
	</linearGradient>
	<path class="st16" d="M780.47,377.01c-1.49-2.95-5.16-14.55-7.38-17.21c-0.52,0.85-6.59,15.95-7.79,17.53
		c-5.49,2.68-17.33,7.15-17.33,7.15s12.23,4.69,17.89,7.51c3,5.79,7.11,17.2,7.11,17.2s4.83-10.02,6.36-13.89
		c0.53-1.34,1.93-3.85,1.93-3.85l16.2-7.59C797.45,383.85,783.29,378.18,780.47,377.01z"/>
	<linearGradient id="SVGID_18_" gradientUnits="userSpaceOnUse" x1="749.3145" y1="127.2956" x2="761.7025" y2="706.4397">
		<stop  offset="0" style="stop-color:#0080C8"/>
		<stop  offset="1" style="stop-color:#833594"/>
	</linearGradient>
	<path class="st17" d="M761.77,427c-1.14-2.25-3.94-11.11-5.64-13.14c-0.4,0.65-5.03,12.18-5.95,13.38
		c-4.19,2.05-13.24,5.46-13.24,5.46s9.34,3.58,13.66,5.74c2.29,4.42,5.43,13.13,5.43,13.13s3.69-7.65,4.86-10.61
		c0.4-1.03,1.47-2.94,1.47-2.94l12.37-5.8C774.74,432.23,763.93,427.89,761.77,427z"/>
	<linearGradient id="SVGID_19_" gradientUnits="userSpaceOnUse" x1="832.2855" y1="125.5209" x2="844.6736" y2="704.6649">
		<stop  offset="0" style="stop-color:#0080C8"/>
		<stop  offset="1" style="stop-color:#833594"/>
	</linearGradient>
	<circle class="st18" cx="837.62" cy="374.87" r="6.3"/>
	<linearGradient id="SVGID_20_" gradientUnits="userSpaceOnUse" x1="1056.2738" y1="120.7297" x2="1068.6619" y2="699.8737">
		<stop  offset="0" style="stop-color:#0080C8"/>
		<stop  offset="1" style="stop-color:#833594"/>
	</linearGradient>
	<path class="st19" d="M1057.56,354.98c1.12,2.71,3.39,8.19,3.39,8.19l4.4-8.54l8-3.43c0,0-7.47-3.64-8.56-4.18
		c-0.72-1.8-3.71-8.18-3.71-8.18s-3.18,6.96-3.8,8.29c-1.25,1.03-8.22,3.91-8.22,3.91S1056.05,354.33,1057.56,354.98z"/>
	<linearGradient id="SVGID_21_" gradientUnits="userSpaceOnUse" x1="1158.0979" y1="118.5516" x2="1170.4861" y2="697.6957">
		<stop  offset="0" style="stop-color:#0080C8"/>
		<stop  offset="1" style="stop-color:#833594"/>
	</linearGradient>
	<path class="st20" d="M1158.39,380.86c1.6,3.88,4.84,11.72,4.84,11.72l6.29-12.21l11.44-4.91c0,0-10.69-5.2-12.24-5.98
		c-1.03-2.58-5.31-11.7-5.31-11.7s-4.55,9.96-5.43,11.86c-1.79,1.47-11.76,5.6-11.76,5.6S1156.22,379.93,1158.39,380.86z"/>
</g>
</svg>
